<?xml version="1.0" encoding="UTF-8"?>
<svg width="33px" height="33px" viewBox="0 0 33 33" version="1.1" xmlns="http://www.w3.org/2000/svg" xmlns:xlink="http://www.w3.org/1999/xlink">
    <!-- Generator: Sketch 49.3 (51167) - http://www.bohemiancoding.com/sketch -->
    <title>contract-icon</title>
    <desc>Created with Sketch.</desc>
    <defs>
        <polygon id="path-1" points="0.0038671875 0 32.9976716 0 32.9976716 33 0.0038671875 33"></polygon>
    </defs>
    <g id="R4R-Result-Description" stroke="none" stroke-width="1" fill="none" fill-rule="evenodd">
        <g id="R4R-Result-Description---Desktop-HD---1441" transform="translate(-931.000000, -288.000000)">
            <g id="resource-access" transform="translate(931.000000, 266.000000)">
                <g id="Requires-Registratio" transform="translate(0.000000, 15.000000)">
                    <g id="contract-icon" transform="translate(0.000000, 7.000000)">
                        <g id="Group-3">
                            <mask id="mask-2" fill="white">
                                <use xlink:href="#path-1"></use>
                            </mask>
                            <g id="Clip-2"></g>
                            <path d="M30.7799121,13.1199492 L29.7832734,14.1174258 L28.4160293,12.7501816 L29.4129902,11.7523828 C29.7901699,11.3753965 30.403377,11.3754609 30.7802988,11.7523828 C31.1571563,12.1294336 31.1591543,12.7406426 30.7799121,13.1199492 Z M22.2363281,31.0664063 L2.90039062,31.0664063 C2.36729883,31.0664063 1.93359375,30.6327012 1.93359375,30.0996094 L1.93359375,2.90039062 C1.93359375,2.36729883 2.36729883,1.93359375 2.90039062,1.93359375 L17.4023438,1.93359375 L17.4023438,6.76757812 C17.4023438,7.30150781 17.8352109,7.734375 18.3691406,7.734375 L23.203125,7.734375 L23.203125,15.2317559 C23.203125,15.2317559 20.3508164,18.0865137 20.3506875,18.0865781 L18.9840879,19.4532422 C18.877998,19.559332 18.7979473,19.6887539 18.7505098,19.8311309 L17.3832012,23.9329277 C17.2673789,24.2803301 17.3578066,24.663375 17.6167793,24.9222832 C17.8760742,25.1815781 18.259248,25.2715547 18.6061348,25.1558613 L22.7079316,23.7886172 C22.8503086,23.7411797 22.9797305,23.6611934 23.0858203,23.5550391 L23.203125,23.4377344 L23.203125,30.0996094 C23.203125,30.6327012 22.7694844,31.0664063 22.2363281,31.0664063 Z M20.1854941,2.21673633 L22.9199824,4.95128906 C23.2267793,5.25815039 23.2031895,5.59440234 23.2031895,5.80078125 L19.336002,5.80078125 L19.336002,1.93359375 C19.5186621,1.93359375 19.8706406,1.90194727 20.1854941,2.21673633 Z M23.7691523,20.1365742 L22.4019082,18.7693301 C23.1299707,18.0406875 26.3635195,14.8043672 27.0493008,14.1180059 L28.4165449,15.48525 L23.7691523,20.1365742 Z M22.402166,21.5041406 L21.8799023,22.0264043 L19.8290684,22.7099941 L20.5126582,20.6590957 L21.0349219,20.1368965 L22.402166,21.5041406 Z M32.1474785,10.3851387 C31.0166484,9.25424414 29.1765762,9.25430859 28.0453594,10.3853965 C27.6974414,10.7336367 25.4760645,12.9568184 25.1367188,13.2964863 L25.1367188,5.63487891 C25.1367188,4.86015234 24.8350137,4.13183203 24.2871621,3.58404492 L21.5527383,0.849492188 C21.0049512,0.301640625 20.2765664,0 19.5018398,0 L2.90039063,0 C1.30111523,0 0,1.30111523 0,2.90039062 L0,30.0996094 C0,31.6988848 1.30111523,33 2.90039063,33 L22.2363281,33 C23.8356035,33 25.1367188,31.6988848 25.1367188,30.0996094 L25.1367188,21.5035605 L32.1474141,14.4869355 C33.2809512,13.3534629 33.281209,11.5187402 32.1474785,10.3851387 Z" id="Fill-1" fill="#0A090B" mask="url(#mask-2)"></path>
                        </g>
                        <path d="M4,12 L18,12 C18.5522667,12 19,11.5522667 19,11 C19,10.4477333 18.5522667,10 18,10 L4,10 C3.44773333,10 3,10.4477333 3,11 C3,11.5522667 3.44773333,12 4,12" id="Fill-4" fill="#0A090B"></path>
                        <path d="M3.91666667,16 L13.0833333,16 C13.5895778,16 14,15.5522667 14,15 C14,14.4477333 13.5895778,14 13.0833333,14 L3.91666667,14 C3.41042222,14 3,14.4477333 3,15 C3,15.5522667 3.41042222,16 3.91666667,16" id="Fill-5" fill="#0A090B"></path>
                        <path d="M3.91666667,19 L13.0833333,19 C13.5895778,19 14,18.5522667 14,18 C14,17.4477333 13.5895778,17 13.0833333,17 L3.91666667,17 C3.41042222,17 3,17.4477333 3,18 C3,18.5522667 3.41042222,19 3.91666667,19" id="Fill-6" fill="#0A090B"></path>
                        <path d="M14,22 C14,21.4477333 13.5895778,21 13.0833333,21 L3.91666667,21 C3.41042222,21 3,21.4477333 3,22 C3,22.5522667 3.41042222,23 3.91666667,23 L13.0833333,23 C13.5895778,23 14,22.5522667 14,22" id="Fill-7" fill="#0A090B"></path>
                        <path d="M18,27 L12,27 C11.4477333,27 11,27.4477333 11,28 C11,28.5522667 11.4477333,29 12,29 L18,29 C18.5522667,29 19,28.5522667 19,28 C19,27.4477333 18.5522667,27 18,27" id="Fill-8" fill="#0A090B"></path>
                    </g>
                </g>
            </g>
        </g>
    </g>
</svg>