<?xml version="1.0" encoding="UTF-8"?>
<svg width="33px" height="33px" viewBox="0 0 33 33" version="1.1" xmlns="http://www.w3.org/2000/svg" xmlns:xlink="http://www.w3.org/1999/xlink">
    <!-- Generator: Sketch 49.3 (51167) - http://www.bohemiancoding.com/sketch -->
    <title>Free-icon</title>
    <desc>Created with Sketch.</desc>
    <defs></defs>
    <g id="R4R-Result-Description" stroke="none" stroke-width="1" fill="none" fill-rule="evenodd">
        <g id="R4R-Result-Description---LESS-TEXT---Desktop---1441" transform="translate(-930.000000, -287.000000)" fill="#000000">
            <g id="resource-access" transform="translate(930.000000, 265.000000)">
                <g id="Free" transform="translate(0.000000, 22.000000)">
                    <path d="M16.2453077,0.507269231 C7.27311538,0.507269231 0,7.78038462 0,16.7525769 C0,25.7264615 7.27311538,33 16.2453077,33 C25.2191923,33 32.4927308,25.7264615 32.4927308,16.7525769 C32.4927308,7.78038462 25.2191923,0.507269231 16.2453077,0.507269231 Z M3.71334615,12.3965769 L11.957,16.0866538 L14.5381923,17.2188077 L16.4538846,18.0882308 L18.0205385,18.7558462 C18.3095,19.0071538 18.4550385,19.3358846 18.4550385,19.7424615 C18.4550385,20.3225 18.2566154,20.7388077 17.8601923,20.9884231 C17.4633462,21.2414231 16.9844231,21.3670769 16.4238462,21.3670769 C15.0704231,21.3670769 13.8608462,20.8729231 12.7980769,19.888 L10.5638077,22.1501923 C12.0526154,23.4261923 13.6971154,24.0756154 15.4951923,24.0938077 L15.4951923,26.5891154 L17.3808462,26.5891154 L17.3808462,24.0938077 C18.5028462,23.9977692 19.4746538,23.6246154 20.2979615,22.9764615 C21.1174615,22.3287308 21.6365769,21.4927308 21.8481154,20.4663462 L27.8701923,23.1503462 C25.6126538,27.2453077 21.2545385,30.0219615 16.2453077,30.0219615 C8.91761538,30.0219615 2.97803846,24.0806923 2.97803846,16.7525769 C2.97803846,15.2273846 3.23907692,13.7614231 3.71334615,12.3965769 Z M20.8348462,16.5215769 L18.2219231,15.3610769 L16.8008077,14.7235 L14.7416923,13.7944231 C14.6439615,13.6590385 14.5961538,13.5236538 14.5961538,13.3878462 C14.5961538,12.9254231 14.7945769,12.5945769 15.191,12.4029231 C15.5878462,12.2078846 16.0371538,12.1122692 16.5397692,12.1122692 C17.4883077,12.1122692 18.4152692,12.4312692 19.3244615,13.0688462 L21.4432308,10.8925385 C20.2251923,9.96515385 18.8700769,9.46296154 17.3808462,9.38511538 L17.3808462,6.88980769 L15.4951923,6.88980769 L15.4951923,9.38511538 C14.4886923,9.44307692 13.6095385,9.72907692 12.8560385,10.2397308 C12.1008462,10.7537692 11.5885,11.4345 11.3173077,12.2857308 L5.1315,9.51076923 C7.49988462,5.885 11.5914615,3.48530769 16.2453077,3.48530769 C23.5734231,3.48530769 29.513,9.42657692 29.513,16.7525769 C29.513,17.9426923 29.3543462,19.0947308 29.0615769,20.1900769 L20.8348462,16.5215769 Z" id="Free-icon"></path>
                </g>
            </g>
        </g>
    </g>
</svg>