<?xml version="1.0" encoding="UTF-8"?>
<svg width="40px" height="41px" viewBox="0 0 40 41" version="1.1" xmlns="http://www.w3.org/2000/svg" xmlns:xlink="http://www.w3.org/1999/xlink">
    <!-- Generator: Sketch 49.3 (51167) - http://www.bohemiancoding.com/sketch -->
    <title>money-bag</title>
    <desc>Created with Sketch.</desc>
    <defs>
        <polygon id="path-1" points="0.00482564778 2.44307224e-05 39.7582708 2.44307224e-05 39.7582708 41 0.00482564778 41"></polygon>
    </defs>
    <g id="R4R-Result-Description" stroke="none" stroke-width="1" fill="none" fill-rule="evenodd">
        <g id="R4R-Result-Description---LESS-TEXT---Desktop---1441" transform="translate(-941.000000, -314.000000)">
            <g id="resource-access" transform="translate(930.000000, 265.000000)">
                <g id="Requires-Payment" transform="translate(11.000000, 49.000000)">
                    <g id="money-bag">
                        <path d="M6,31 C6.5523,31 7,31.4477 7,32 C7,32.5523 6.5523,33 6,33 C5.4477,33 5,32.5523 5,32 C5,31.4477 5.4477,31 6,31" id="Fill-1" fill="#0A0B09"></path>
                        <path d="M37,22 C37.5523,22 38,22.4477 38,23 C38,23.5523 37.5523,24 37,24 C36.4477,24 36,23.5523 36,23 C36,22.4477 36.4477,22 37,22" id="Fill-2" fill="#0A0B09"></path>
                        <g id="Group-6">
                            <mask id="mask-2" fill="white">
                                <use xlink:href="#path-1"></use>
                            </mask>
                            <g id="Clip-4"></g>
                            <path d="M26.5781399,14.8792363 L27.9463719,14.8792363 C28.2631756,14.8792363 28.5210261,15.1358066 28.5210261,15.4513145 C28.5210261,15.8935059 28.8811803,16.2520957 29.3253007,16.2520957 C29.7694212,16.2520957 30.1295753,15.8935059 30.1295753,15.4513145 C30.1295753,14.2707227 29.1790836,13.307543 27.9999366,13.2790352 L27.9999366,12.5916445 C27.9999366,12.1494531 27.6397824,11.7908633 27.1956619,11.7908633 C26.7515415,11.7908633 26.3913873,12.1494531 26.3913873,12.5916445 L26.3913873,13.2858418 C25.2012217,13.3809746 24.2617485,14.3750645 24.2617485,15.584084 L24.2617485,16.2992617 C24.2617485,17.5709824 25.3009517,18.6056719 26.5782203,18.6056719 L27.813184,18.6056719 C28.2035789,18.6056719 28.5211065,18.9218203 28.5211065,19.3104395 L28.5211065,20.0256973 C28.5211065,20.4143164 28.2035789,20.7304648 27.813184,20.7304648 L26.444952,20.7304648 C26.1281482,20.7304648 25.8702978,20.4738945 25.8702978,20.1583867 C25.8702978,19.7161953 25.5101436,19.3576055 25.0660231,19.3576055 C24.6219027,19.3576055 24.2617485,19.7161953 24.2617485,20.1583867 C24.2617485,21.3390586 25.2123207,22.3021582 26.3913873,22.330666 L26.3913873,23.0180566 C26.3913873,23.460248 26.7515415,23.8188379 27.1956619,23.8188379 C27.6397824,23.8188379 27.9999366,23.460248 27.9999366,23.0180566 L27.9999366,22.3238594 C29.1901022,22.2287266 30.1295753,21.2347168 30.1295753,20.0256973 L30.1295753,19.3104395 C30.1295753,18.0387188 29.0903721,17.0041094 27.8131036,17.0041094 L26.5781399,17.0041094 C26.187745,17.0041094 25.8702173,16.6879609 25.8702173,16.2992617 L25.8702173,15.584084 C25.8702978,15.1953848 26.1878254,14.8792363 26.5781399,14.8792363" id="Fill-3" fill="#0A0B09" mask="url(#mask-2)"></path>
                            <path d="M10.3781185,34.4878867 C10.365411,34.4934922 10.3527839,34.499498 10.3403176,34.5057441 L1.60846883,38.8975488 L1.60854926,35.6524629 L3.86960653,34.5469844 C4.26836589,34.3519941 4.43284005,33.872166 4.23707961,33.4752188 C4.04123874,33.0781914 3.55947823,32.9142715 3.16063844,33.1093418 L1.60846883,33.8681621 L1.60846883,27.1216602 L6.21929486,25.1099375 C6.34596812,25.0543633 6.45816443,25.08175 6.5137398,25.1032109 C6.56915433,25.1246719 6.67065378,25.1793652 6.7266313,25.3056484 L6.91097104,25.7212539 C6.91105147,25.7214141 6.91105147,25.7215742 6.9111319,25.7217344 C6.91121233,25.7218945 6.91129275,25.7220547 6.91137318,25.7222148 L10.5745224,33.9825938 C10.6603385,34.1759023 10.5722704,34.4025234 10.3781185,34.4878867 Z M25.2880834,8.02855273 L28.5967888,8.02855273 L28.5967888,6.37750195 L25.2880834,6.37750195 L25.2880834,8.02855273 Z M24.984711,1.66106055 L26.6153778,2.31009375 C26.798109,2.38280469 27.0012687,2.3864082 27.1863323,2.31994336 L29.0155746,1.66434375 L30.3990073,2.2901543 L28.9395706,4.7757793 L24.9574461,4.7757793 L23.5330757,2.21848438 L24.984711,1.66106055 Z M39.4953534,27.1472051 C39.1643944,26.400957 38.5613493,25.8275977 37.7973688,25.5329102 C37.0333883,25.2382227 36.1997577,25.2572812 35.4502542,25.5869629 C35.4462328,25.5886445 35.4422114,25.5904863 35.4383509,25.592248 L30.3723054,27.9183574 C29.9688813,28.1035781 29.7927451,28.5793223 29.9786934,28.9809141 C30.1647221,29.3825859 30.6426221,29.557877 31.0458854,29.3728164 L36.1054163,27.0496699 C36.4605035,26.8953594 36.854759,26.8871113 37.2163608,27.0263672 C37.5797321,27.166584 37.866456,27.4391699 38.0238526,27.7941562 C38.1813295,28.1491426 38.1904178,28.5437676 38.0496698,28.9055605 C37.9088413,29.2674336 37.6350662,29.5529121 37.2785313,29.709625 L26.9114313,34.2671914 C25.2766627,34.9858926 23.4211207,34.9440918 21.8202924,34.1522793 L18.0253226,32.275168 C15.9954943,31.2710684 13.6421867,31.2178164 11.5688471,32.1295059 L11.5205907,32.1506465 L8.707801,25.8076582 L12.6188277,24.0883809 C14.4878815,23.2666992 16.5733656,23.2005547 18.4909976,23.9016387 L26.1223574,26.6919609 C26.8039802,26.9411641 27.167271,27.7004648 26.9321816,28.3844121 C26.6926686,29.0814121 25.9275621,29.456418 25.2267172,29.2204277 L19.3253521,27.2330488 C18.9044752,27.0913105 18.4481298,27.3160898 18.3057732,27.7350586 C18.1634165,28.1540273 18.3891764,28.6084707 18.8099729,28.750209 L24.711338,30.7375879 C25.0233966,30.8427305 25.3411655,30.8926191 25.6540283,30.8926191 C26.8832012,30.8926191 28.0351638,30.1222676 28.4541909,28.9028379 C28.9699722,27.4016934 28.1726143,25.7355078 26.6768244,25.1886543 L19.0454645,22.398332 C18.5321765,22.2106289 18.0089154,22.0688105 17.4808287,21.9722363 L17.4808287,17.5457578 C17.4808287,13.1811797 21.0472237,9.63027539 25.4308421,9.63027539 L28.3683748,9.63027539 C32.7520736,9.63027539 36.3184686,13.1811797 36.3184686,17.5457578 L36.3184686,19.6326738 C36.3184686,20.0748652 36.6786228,20.4334551 37.1227433,20.4334551 C37.5668637,20.4334551 37.9270179,20.0748652 37.9270179,19.6326738 L37.9270179,17.5457578 C37.9270179,12.9235684 34.6001359,9.061 30.205338,8.20576562 L30.205338,5.79357227 L32.2374987,2.33243555 C32.3524296,2.13680469 32.3786489,1.90177539 32.3096422,1.68580469 C32.2406354,1.46983398 32.083078,1.29302148 31.8758164,1.19925 L29.3833693,0.07175 C29.192515,-0.0145742188 28.9754413,-0.0233027344 28.7783135,0.0473261719 L26.928884,0.710052734 L25.2884855,0.0571757813 C25.0998831,-0.0177773437 24.889887,-0.0189785156 24.7003999,0.0536523438 L22.0922981,1.05550977 C21.8753048,1.13887109 21.7052007,1.31175977 21.6257384,1.52949219 C21.5464369,1.74722461 21.5655787,1.98841992 21.6784184,2.19101758 L23.6795341,5.78388281 L23.6795341,8.18926953 C19.2424314,9.01071094 15.8722794,12.8933789 15.8722794,17.5455977 L15.8722794,21.8185664 C14.5436177,21.8060742 13.2164037,22.0747363 11.9691346,22.6230312 L8.02899321,24.3551211 C7.80331375,24.018873 7.48144304,23.7589395 7.09482822,23.609834 C6.59842992,23.4182871 6.05675096,23.4307793 5.57169293,23.6440273 L0.481438794,25.864834 C0.188924111,25.9924785 0,26.2802793 0,26.5982695 L0,40.1992187 C0,40.4773301 0.144930288,40.735502 0.382834724,40.8813242 C0.511759947,40.9602012 0.65781622,41 0.80427463,41 C0.928293778,41 1.05263464,40.9714922 1.16692206,40.9139961 L11.0492857,35.9434668 C11.5258989,35.727416 11.8919243,35.3414395 12.0814114,34.8544043 C12.2362342,34.4564961 12.2582714,34.0294395 12.14889,33.6250449 L12.2184598,33.5944551 C13.8533088,32.8755937 15.7090921,32.9174746 17.3095986,33.7093672 L21.1045684,35.5865586 C23.1344772,36.590418 25.4877043,36.6435098 27.5610439,35.7321406 L37.9281439,31.1745742 C38.6776474,30.8451328 39.253508,30.244707 39.5494811,29.4840449 C39.8454542,28.7233828 39.826232,27.8934531 39.4953534,27.1472051 Z" id="Fill-5" fill="#0A0B09" mask="url(#mask-2)"></path>
                        </g>
                    </g>
                </g>
            </g>
        </g>
    </g>
</svg>