<svg width="192" height="4200" xmlns="http://www.w3.org/2000/svg" xmlns:xlink="http://www.w3.org/1999/xlink"><svg viewBox="-11 -11 47 44.721" width="47" height="44.721" id="amazon-white" xmlns="http://www.w3.org/2000/svg"><path d="M.046 17.631c.075-.121.196-.13.364-.023 3.788 2.197 7.91 3.297 12.365 3.297 2.969 0 5.902-.555 8.798-1.661l.328-.136c.144-.063.245-.107.306-.137.235-.09.407-.046.548.137.125.181.093.348-.125.5-.266.197-.625.425-1.048.681-1.296.774-2.75 1.372-4.359 1.797a18.398 18.398 0 0 1-4.704.635c-2.359 0-4.594-.413-6.705-1.238a18.484 18.484 0 0 1-5.658-3.489C.046 17.92 0 17.842 0 17.767c0-.047.015-.091.046-.136zm6.84-6.476c0-1.047.257-1.941.772-2.684.517-.741 1.219-1.302 2.127-1.682.827-.349 1.827-.599 3.03-.75a69.854 69.854 0 0 1 2-.181v-.387c0-.967-.109-1.621-.311-1.952-.314-.456-.814-.684-1.5-.684h-.19c-.5.046-.933.202-1.297.478-.365.281-.598.656-.703 1.141-.063.311-.214.483-.453.531l-2.625-.329c-.259-.062-.388-.187-.388-.406a.66.66 0 0 1 .023-.156c.258-1.344.891-2.344 1.897-3C10.285.454 11.456.079 12.8 0h.563c1.719 0 3.079.454 4.047 1.344.141.156.282.312.422.5.125.171.235.327.297.469.078.141.156.343.203.593.062.265.11.438.141.532.031.108.063.312.078.641.016.327.031.515.031.577v5.5c0 .39.062.75.172 1.079.109.327.219.561.328.703l.531.702c.094.141.141.266.141.375 0 .125-.062.235-.187.329a351.975 351.975 0 0 1-2.048 1.781c-.171.14-.39.156-.656.046a5.572 5.572 0 0 1-.546-.515l-.329-.36a7.927 7.927 0 0 1-.328-.436l-.312-.454c-.844.923-1.673 1.5-2.502 1.734-.515.156-1.14.235-1.906.235-1.155 0-2.125-.36-2.875-1.079-.75-.717-1.125-1.734-1.125-3.061zm3.909-.456c0 .59.147 1.062.442 1.421.298.355.703.531 1.203.531.048 0 .11-.006.204-.02.094-.016.141-.023.171-.023.641-.168 1.125-.575 1.485-1.227.173-.289.298-.602.375-.944.094-.327.125-.608.14-.827.016-.204.016-.564.016-1.047V8c-.875 0-1.546.062-2 .188-1.327.375-2 1.218-2 2.531zm9.545 7.318a.756.756 0 0 1 .136-.182c.38-.256.744-.431 1.094-.523a8.062 8.062 0 0 1 1.68-.249c.151-.017.296 0 .431.031.683.062 1.094.171 1.229.343.061.094.09.234.09.407V18c0 .531-.144 1.156-.431 1.875-.289.719-.69 1.296-1.204 1.75-.078.063-.145.094-.205.094-.033 0-.064 0-.091-.015-.094-.048-.114-.125-.069-.25.562-1.314.84-2.235.84-2.75 0-.158-.03-.283-.09-.36-.151-.173-.575-.265-1.274-.265-.256 0-.559.015-.906.046-.382.046-.73.094-1.047.14-.094 0-.152-.015-.183-.046-.032-.031-.038-.048-.022-.079 0-.015.007-.03.022-.061z" fill="#fff"/></svg><svg viewBox="-11 -11 87 87.001" width="87" height="87.001" id="api-icon" y="45" xmlns="http://www.w3.org/2000/svg"><path fill="#319FBE" d="M32.5 0C14.551 0 0 14.55 0 32.501c0 17.949 14.55 32.5 32.5 32.5C50.45 65 65 50.45 65 32.5 65 14.551 50.449 0 32.5 0z"/><path fill="none" d="M32.5 0C14.551 0 0 14.55 0 32.501c0 17.949 14.55 32.5 32.5 32.5C50.45 65 65 50.45 65 32.5 65 14.551 50.449 0 32.5 0z"/><path fill="none" d="M32.5 0C14.551 0 0 14.55 0 32.501c0 17.949 14.55 32.5 32.5 32.5C50.45 65 65 50.45 65 32.5 65 14.551 50.449 0 32.5 0z"/><path fill="none" d="M32.5 0C14.551 0 0 14.55 0 32.501c0 17.949 14.55 32.5 32.5 32.5C50.45 65 65 50.45 65 32.5 65 14.551 50.449 0 32.5 0z"/><path fill="#388AB1" d="M62.674 44.574l.07-.18-.076.194a.113.113 0 0 1 .006-.014zm.922-2.611l.017-.06c-.006.02-.01.04-.017.06z"/><path fill="none" d="M63.266 42.97zm-.39 1.09l.071-.18a7.95 7.95 0 0 0-.071.18zm.737-2.158l.043-.149-.043.15zm-.951 2.702l.006-.016-.006.016zM42.49 63.43c.141-.046.28-.095.422-.143l-.423.143zm-3.04.686l-.45-.45-.45-.45-.451-.452c-.072-.07-.142-.142-.214-.213l-.236-.237-.451-.45-.214-.214-.236-.236-.45-.451-.214-.214-.237-.236-.45-.451-.214-.214c-.08-.078-.158-.157-.237-.236l-.45-.45-.214-.214-.237-.237-.213-.214-.45-.45-.451-.45-.45-.451c-.15-.15-.302-.3-.45-.45l-.452-.45-.45-.451-.45-.45-.45-.45c-.15-.151-.301-.3-.451-.452l-.45-.45-.451-.45-.45-.45c-.3-.3-.602-.6-.901-.901l-.237-.238c-.072-.07-.142-.142-.214-.213l-.236-.237c-.151-.149-.3-.3-.451-.45l-.45-.45-.45-.45-.452-.451-.45-.45-.45-.451-.214-.214-.237-.236-.45-.451-.214-.214-.236-.236-.451-.45-.214-.214-.236-.237-.451-.45-.213-.214-.237-.237-.45-.45-.214-.214c-.302-.3-.6-.6-.901-.9l-.45-.451-.451-.45c-.559-.564-.606-1.103-.152-1.748.457-.65.918-1.296 1.386-1.937a.966.966 0 0 1-.166-.242.988.988 0 0 1-.451-.45.987.987 0 0 1-.45-.45.988.988 0 0 1-.45-.45.987.987 0 0 1-.451-.451.988.988 0 0 1-.45-.45.985.985 0 0 1-.45-.45.988.988 0 0 1-.452-.451.987.987 0 0 1-.45-.45.988.988 0 0 1-.45-.45.985.985 0 0 1-.45-.451c-.423-.222-.598-.602-.599-1.253-.001-.963-.003-1.927.001-2.89.004-.706.326-1.111 1.03-1.246.89-.17 1.785-.325 2.682-.46.306-.045.448-.156.56-.465.34-.94.728-1.865 1.133-2.78.109-.246.116-.404-.043-.62-.54-.73-1.062-1.475-1.587-2.217-.485-.686-.44-1.21.156-1.81.66-.663 1.323-1.325 1.988-1.985.597-.592 1.118-.631 1.808-.133.726.524 1.454 1.046 2.17 1.584.203.152.352.141.581.039.95-.426 1.92-.808 2.873-1.229.142-.062.302-.23.33-.373a31.86 31.86 0 0 0 .413-2.402c.091-.743.356-1.324 1.122-1.567 1.17-.002 2.338-.002 3.505-.002.405.122.668.342.84.628.194.12.342.27.451.45.194.12.342.27.45.451.194.12.342.27.451.45.194.12.342.27.45.451.194.119.342.27.451.45.193.12.342.27.45.45.193.12.342.271.451.451.193.119.341.27.45.45.193.12.342.271.45.45.194.12.342.271.45.452.1.06.19.128.265.206.681-.495 1.368-.984 2.058-1.467.64-.448 1.196-.397 1.75.152a388.506 388.506 0 0 1 2.044 2.045l.45.45h.002l.449.45.45.45.002.001c.149.15.3.299.449.45l.45.45v.001c.15.15.301.299.45.45h.001l.45.45v.001c.15.15.301.299.45.45l.451.45.45.45v.001l.45.45h.002l.206.207c.684.68 1.366 1.36 2.045 2.044l.001.002.45.449.45.45.005.006c.148.149.298.296.445.445.15.151.302.3.45.45l.002.002c.15.15.3.298.449.449l.45.45.002.002c.15.15.3.298.449.449l.45.45.002.001.449.45.45.45.001.001.45.45.45.45.001.001.45.45.45.45.001.001.45.449.45.45.001.002c.15.15.3.298.449.449l.001.001.45.45.45.45h.001l.45.45v.002c.15.15.301.298.45.449l.45.45h.001l.45.45v.001l.45.45.45.45.001.001.45.45.45.45c.628-2.523.966-5.161.966-7.879C65 14.551 50.45 0 32.5 0S0 14.55 0 32.501c0 17.949 14.55 32.5 32.5 32.5 2.425 0 4.784-.274 7.057-.778l-.107-.107zm23.295-19.723l.023-.058-.023.058z"/><path fill="#388AB1" d="M64.033 40.38l-.449-.45-.45-.45h-.001l-.45-.45v-.001l-.45-.45-.45-.45h-.001l-.45-.45v-.002l-.45-.449-.45-.45-.002-.001-.449-.45-.45-.45-.001-.001-.45-.45-.45-.45-.001-.001-.45-.45-.45-.45-.001-.001-.45-.449v-.001l-.45-.45-.45-.45h-.001l-.45-.451-.45-.45-.451-.45v-.001l-.45-.45-.45-.45-.001-.001-.45-.45-.45-.45-.001-.001c-.148-.15-.297-.296-.445-.445l-.005-.006-.45-.45h-.001l-.45-.45a388.506 388.506 0 0 0-2.045-2.045l-.206-.206-.002-.001-.45-.45v-.001l-.45-.45-.45-.45-.001-.001-.45-.449v-.001l-.45-.45h-.001l-.45-.45v-.001l-.45-.45-.45-.45h-.001l-.45-.45v-.002l-.45-.449-.45-.45-.002-.001a388.506 388.506 0 0 0-2.044-2.044c-.553-.55-1.109-.6-1.75-.152-.689.483-1.376.971-2.057 1.467a1.348 1.348 0 0 0-.265-.207 1.335 1.335 0 0 0-.45-.45 1.325 1.325 0 0 0-.45-.45 1.335 1.335 0 0 0-.45-.451 1.325 1.325 0 0 0-.451-.45 1.335 1.335 0 0 0-.45-.45 1.325 1.325 0 0 0-.451-.451 1.335 1.335 0 0 0-.45-.45 1.325 1.325 0 0 0-.45-.45 1.335 1.335 0 0 0-.451-.452 1.325 1.325 0 0 0-.45-.45c-.174-.287-.436-.506-.841-.628-1.168 0-2.335 0-3.506.002-.765.243-1.03.823-1.122 1.567-.1.806-.25 1.606-.412 2.402-.029.143-.189.31-.33.373-.953.42-1.923.803-2.873 1.228-.23.103-.379.114-.581-.038-.716-.538-1.444-1.06-2.17-1.584-.69-.498-1.212-.46-1.808.133-.665.66-1.328 1.322-1.988 1.985-.596.6-.642 1.124-.156 1.81.525.742 1.047 1.487 1.587 2.218.158.215.152.373.043.619a43.75 43.75 0 0 0-1.134 2.78c-.112.309-.254.42-.56.466a66.1 66.1 0 0 0-2.681.459c-.704.135-1.027.54-1.03 1.245-.005.964-.002 1.928-.001 2.891 0 .65.175 1.03.598 1.253a.985.985 0 0 0 .45.45.983.983 0 0 0 .45.45.981.981 0 0 0 .451.45.983.983 0 0 0 .45.451.985.985 0 0 0 .45.45.983.983 0 0 0 .451.45.981.981 0 0 0 .45.451.983.983 0 0 0 .451.45.981.981 0 0 0 .45.45.983.983 0 0 0 .451.45c.044.092.1.172.166.243-.468.64-.928 1.288-1.385 1.937-.455.645-.407 1.184.152 1.747l.45.45.45.451c.3.3.6.602.901.9l.214.214.45.451.237.237c.072.07.142.142.214.213l.45.45.237.237.213.214.451.45.237.237.213.214.451.45.237.237.213.214.45.45.45.45.452.451.45.45.45.451.45.45h.001l.237.237.213.213.238.237c.299.302.6.601.9.901l.45.45.451.451.45.45.451.451.45.45.45.45.451.451.45.45.45.45.452.452.45.45.45.45.214.214.236.236.214.214.45.45.237.237.214.214.45.45.237.237.214.214.45.45.237.237.214.214.45.45.237.237.213.213.451.451.45.45.45.45.108.108c.995-.22 1.973-.484 2.932-.794l.423-.143a32.58 32.58 0 0 0 19.75-18.683l.006-.015.076-.195.023-.058.11-.276c.006-.019.014-.038.022-.057a7.95 7.95 0 0 1 .048-.123c.113-.3.216-.605.32-.91a37.028 37.028 0 0 0 .347-1.067l.042-.15c.133-.452.26-.91.376-1.372z"/><g><g fill="#FFF"><path d="M33.204 14.943c.773.234 1.036.813 1.125 1.561.093.78.272 1.547.38 2.325.037.27.177.342.397.428.982.383 1.96.775 2.927 1.196.23.1.38.118.584-.031a141.7 141.7 0 0 1 2.254-1.606c.64-.449 1.196-.398 1.75.151.683.679 1.365 1.36 2.044 2.044.534.54.583 1.1.148 1.72-.523.743-1.048 1.486-1.584 2.22-.16.218-.182.383-.059.654.42.923.798 1.865 1.165 2.81.094.241.185.372.465.413.925.135 1.844.305 2.763.467.683.12 1.087.579 1.091 1.256a212.18 212.18 0 0 1 0 3.053c-.005.638-.364 1.082-.995 1.201-.917.174-1.837.339-2.763.467-.34.048-.463.202-.57.51-.303.877-.655 1.738-1.01 2.667-.187-.148-.284-.215-.37-.294-.947-.875-1.887-1.758-2.843-2.624-.2-.181-.238-.331-.152-.593 1.723-5.19-1.426-10.566-6.786-11.602-4.773-.923-9.54 2.393-10.334 7.188-.825 4.984 2.49 9.586 7.443 10.326a8.482 8.482 0 0 0 4.09-.377c.303-.105.487-.053.704.176.954 1.001 1.926 1.986 2.935 3.02-.154.093-.267.184-.395.235-.805.322-1.608.645-2.422.941-.235.086-.346.19-.385.445-.144.95-.309 1.898-.48 2.844-.112.623-.56.995-1.196 1-1.031.006-2.063.005-3.094 0-.705-.003-1.145-.367-1.268-1.067a93.361 93.361 0 0 1-.429-2.647c-.048-.328-.181-.494-.517-.613-.854-.3-1.698-.64-2.515-1.028-.36-.17-.593-.163-.904.076-.678.52-1.385 1.002-2.084 1.494-.662.466-1.208.418-1.782-.151a357.69 357.69 0 0 1-2.015-2.015c-.559-.564-.606-1.102-.152-1.748.516-.732 1.033-1.464 1.564-2.185.165-.223.172-.391.051-.655a50.92 50.92 0 0 1-1.174-2.807c-.1-.256-.236-.364-.483-.404-.855-.139-1.709-.29-2.564-.425-.932-.146-1.276-.532-1.277-1.46-.001-.963-.003-1.927.001-2.89.004-.706.326-1.11 1.03-1.246.89-.17 1.785-.325 2.682-.459.306-.046.448-.157.56-.466.34-.94.728-1.865 1.133-2.78.109-.246.116-.404-.043-.619-.54-.731-1.062-1.476-1.587-2.218-.485-.685-.44-1.21.156-1.81.66-.663 1.323-1.325 1.988-1.985.597-.592 1.118-.63 1.808-.133.726.524 1.454 1.046 2.17 1.584.203.153.352.141.581.039.95-.425 1.92-.808 2.873-1.228.142-.063.302-.23.33-.374a31.86 31.86 0 0 0 .413-2.401c.091-.744.356-1.325 1.122-1.567 1.17-.003 2.338-.003 3.505-.003z"/><path d="M29.132 27.74c.149-.123.243-.248.367-.296 1.34-.52 2.718-.666 4.03-.02 1.541.757 2.666 1.949 2.564 3.886-.02.39-.087.782-.17 1.164-.126.579.04 1.076.381 1.525.205.269.426.531.673.761 2.821 2.626 5.65 5.243 8.476 7.864 1.293 1.2 2.58 2.407 3.876 3.603.774.714.984 1.579.657 2.553-.337 1.005-1.092 1.544-2.13 1.62-.742.055-1.366-.268-1.885-.802-2.657-2.735-5.318-5.468-7.978-8.2-1.231-1.264-2.454-2.536-3.704-3.781-.38-.38-.823-.705-1.267-1.009-.363-.248-.8-.282-1.214-.141-2.285.776-4.265-.804-4.91-2.576-.21-.579-.294-1.206-.404-1.817-.023-.133.09-.29.14-.435.122.042.256.065.364.131.692.429 1.376.87 2.068 1.298.577.358 1.184.368 1.718-.036.848-.64 1.405-1.47 1.322-2.596-.04-.533-.305-.94-.764-1.228-.62-.39-1.23-.795-1.843-1.196-.11-.071-.211-.156-.367-.273zM47.72 46.69c-.744.015-1.29.593-1.276 1.352.012.72.625 1.302 1.358 1.288.672-.013 1.245-.621 1.237-1.314-.009-.74-.606-1.339-1.32-1.325z"/></g></g></svg><svg viewBox="-11 -11 56 46.87" width="56" height="46.87" id="book" y="133" xmlns="http://www.w3.org/2000/svg"><path d="M2.152 1.459c6.846-4.003 14.072 1.502 14.072 1.502v18.396s-5.064-4.314-14.072-1.752zm29.646 18.146c-9.008-2.562-14.072 1.752-14.072 1.752V2.961s7.226-5.505 14.072-1.502zM16.995 24.87l-.36-.34C10.449 18.745.751 21.817.661 21.847l-.661.22V2.79h1.001v17.906c2.362-.65 10.239-2.202 15.964 2.773 5.074-4.845 13.612-3.193 16.034-2.593V2.961H34v19.247l-.641-.191c-.11-.03-10.679-3.092-16.014 2.493z" fill="#fff"/></svg><svg viewBox="-11 -11 40 42" width="40" height="42" id="calendar-blue" y="180" xmlns="http://www.w3.org/2000/svg"><path d="M16.615 20H1.385A1.383 1.383 0 0 1 0 18.62V3.449c0-.762.62-1.38 1.385-1.38h1.384v.689c0 1.143.93 2.069 2.077 2.069a2.073 2.073 0 0 0 2.077-2.069v-.689h4.154v.689c0 1.143.93 2.069 2.077 2.069a2.074 2.074 0 0 0 2.077-2.069v-.689h1.384c.765 0 1.385.618 1.385 1.38V18.62c0 .762-.62 1.38-1.385 1.38zm0-13.104H1.385V18.62h15.23V6.896zM4.846 10.345H2.769V8.276h2.077v2.069zm0 3.448H2.769v-2.069h2.077v2.069zm0 3.449H2.769v-2.069h2.077v2.069zm3.462-6.897H6.231V8.276h2.077v2.069zm0 3.448H6.231v-2.069h2.077v2.069zm0 3.449H6.231v-2.069h2.077v2.069zm3.461-6.897H9.692V8.276h2.077v2.069zm0 3.448H9.692v-2.069h2.077v2.069zm0 3.449H9.692v-2.069h2.077v2.069zm3.462-6.897h-2.077V8.276h2.077v2.069zm0 3.448h-2.077v-2.069h2.077v2.069zm0 3.449h-2.077v-2.069h2.077v2.069zM13.132 4.138a1.361 1.361 0 0 1-1.363-1.358V1.358c0-.75.61-1.358 1.363-1.358a1.36 1.36 0 0 1 1.364 1.358V2.78c0 .749-.61 1.358-1.364 1.358zm-8.307 0A1.36 1.36 0 0 1 3.462 2.78V1.358C3.462.608 4.071 0 4.825 0a1.36 1.36 0 0 1 1.363 1.358V2.78c0 .749-.611 1.358-1.363 1.358z" fill="#2b7bba"/></svg><svg viewBox="-11 -11 132 132" width="132" height="132" id="checklist-large" y="222" xmlns="http://www.w3.org/2000/svg"><g fill="#6256A3"><path d="M72.863 29.929h-2.429c-.626 2.429-2.742 4.152-5.327 4.23H45.128c-2.585-.078-4.779-1.801-5.562-4.23h-2.508c-.94 0-1.645.705-1.645 1.645v48.34c0 .94.705 1.646 1.645 1.646h35.805c.94 0 1.646-.705 1.646-1.645v-48.34c0-.941-.784-1.646-1.646-1.646zM52.18 55.705h-6.347a.702.702 0 0 1-.705-.705v-6.346c0-.392.314-.705.705-.705h6.347c.391 0 .705.313.705.705V55a.702.702 0 0 1-.705.705zm.705 3.526v6.346a.702.702 0 0 1-.705.705h-6.347a.702.702 0 0 1-.705-.705V59.23c0-.392.314-.705.705-.705h6.347c.391 0 .705.313.705.705zm-2.116-16.14a.702.702 0 0 1-.705-.705c0-.392.314-.705.705-.705h9.872c.392 0 .705.313.705.705a.702.702 0 0 1-.705.705h-9.872zm-11.203-4.936c0-.391.313-.705.705-.705h6.346c.392 0 .705.314.705.705v6.346a.702.702 0 0 1-.705.706H40.27a.702.702 0 0 1-.705-.706v-6.346zm7.756 37.92a.702.702 0 0 1-.705.706H40.27a.702.702 0 0 1-.705-.705v-6.347c0-.391.313-.705.705-.705h6.346c.392 0 .705.314.705.705v6.347zm13.319-.705h-9.872a.702.702 0 0 1-.705-.705c0-.391.314-.705.705-.705h9.872c.392 0 .705.314.705.705a.702.702 0 0 1-.705.705zm8.462-2.82H50.769a.702.702 0 0 1-.705-.705c0-.392.314-.705.705-.705h18.255c.392 0 .705.313.705.705 0 .391-.313.705-.626.705zM55 64.167c0-.392.313-.705.705-.705h9.872c.392 0 .705.313.705.705a.702.702 0 0 1-.705.705h-9.872a.702.702 0 0 1-.705-.705zm14.103-2.82h-13.32a.702.702 0 0 1-.705-.706c0-.392.314-.705.705-.705h13.32c.391 0 .705.313.705.705-.079.392-.392.705-.705.705zM55 53.59c0-.392.313-.705.705-.705h9.872c.392 0 .705.313.705.705a.702.702 0 0 1-.705.705h-9.872A.702.702 0 0 1 55 53.59zm14.103-2.82h-13.32a.702.702 0 0 1-.705-.706c0-.392.314-.705.705-.705h13.32c.391 0 .705.313.705.705 0 .392-.392.705-.705.705zm0-10.5H50.769a.702.702 0 0 1-.705-.704c0-.392.314-.706.705-.706h18.255c.392 0 .705.314.705.706 0 .391-.313.705-.626.705z"/><path d="M46.617 49.359h4.936v4.936h-4.936zm0 10.577h4.936v4.936h-4.936zM41.29 42.073c-.236-.314-.158-.784.156-1.019.313-.235.783-.157 1.018.157l.627.862 1.332-2.507c0-.079.078-.157.157-.236.235-.313.705-.313 1.018-.078.314.235.314.705.079 1.019l-1.802 3.525h2.115V38.86h-4.936v4.936H42.7l-1.41-1.723z"/><path d="M55 0C24.601 0 0 24.601 0 55s24.601 55 55 55 55-24.601 55-55S85.399 0 55 0zm22.642 79.915c0 2.663-2.193 4.779-4.779 4.779H37.137c-2.664 0-4.78-2.194-4.78-4.78v-48.34c0-2.664 2.194-4.78 4.78-4.78h2.193c.079-.783.784-1.41 1.567-1.41h28.127c.784 0 1.489.627 1.567 1.41h2.272c2.664 0 4.78 2.195 4.78 4.78v48.34z"/><path d="M45.207 30.947h19.9c1.253-.078 2.272-1.175 2.35-2.428H42.543c.156 1.331 1.332 2.35 2.664 2.428zm-4.231 39.487h4.936v4.936h-4.936z"/></g></svg><svg viewBox="-10 -10 36 32" width="36" height="36" id="checkmark-blue" y="354" xmlns="http://www.w3.org/2000/svg"><path d="M15.71 1.657L14.308.283A.966.966 0 0 0 13.605 0a.966.966 0 0 0-.702.283L6.132 6.919 3.097 3.94a.966.966 0 0 0-.702-.282.966.966 0 0 0-.702.282L.289 5.313A.925.925 0 0 0 0 6c0 .27.096.499.289.687l3.737 3.657 1.404 1.373a.966.966 0 0 0 .702.283.962.962 0 0 0 .701-.283l1.404-1.373 7.474-7.314A.926.926 0 0 0 16 2.343a.925.925 0 0 0-.29-.686z" fill="#2a72a5"/></svg><svg width="36" height="36" viewBox="-10 -10 36 36" id="checkmark-small-blue" y="390" xmlns="http://www.w3.org/2000/svg"><path d="M13.265 3.346L12.124 2.23a.784.784 0 0 0-.57-.23.784.784 0 0 0-.57.23L5.482 7.622 3.016 5.201a.782.782 0 0 0-.57-.23.784.784 0 0 0-.571.23L.735 6.317a.75.75 0 0 0-.235.558.75.75 0 0 0 .235.558l3.036 2.971 1.141 1.116c.156.153.346.23.57.23a.786.786 0 0 0 .57-.23l1.141-1.116 6.072-5.942a.753.753 0 0 0 .235-.558.753.753 0 0 0-.235-.558z" fill="#2a72a5"/></svg><svg viewBox="-10.999 -10.75 40 32.5" width="40" height="32.5" xmlns:bx="https://boxy-svg.com" id="chevron-black" y="426" xmlns="http://www.w3.org/2000/svg"><path d="M17.51 10.214c-.677.688-1.62.741-2.446 0L8.999 4.426l-6.065 5.788c-.827.741-1.771.688-2.442 0-.677-.689-.633-1.849 0-2.495.63-.645 7.285-6.952 7.285-6.952A1.701 1.701 0 0 1 8.999.25c.443 0 .884.172 1.226.517 0 0 6.652 6.307 7.285 6.952.632.646.676 1.806 0 2.495z" bx:origin="0.5 0"/></svg><svg width="41" height="41" viewBox="-10 -10 41 41" id="chevron-circle-cream" y="459" xmlns="http://www.w3.org/2000/svg"><g transform="translate(.5 .5)"><circle cx="10" cy="10" r="10" fill="#ceebf2"/><path d="M15.48 12.55c-.44.45-1.04.48-1.58 0L10 8.8l-3.91 3.75c-.53.48-1.14.45-1.57 0-.44-.44-.41-1.2 0-1.61.41-.42 4.69-4.5 4.69-4.5a1.076 1.076 0 0 1 1.57 0s4.29 4.08 4.7 4.5c.42.42.44 1.17 0 1.61z" fill="#26393c"/></g></svg><svg version="1.1" id="chevron-circle-dk-blue" y="500" viewBox="-10 -10 41 41" width="41" height="41" xmlns="http://www.w3.org/2000/svg"><g transform="translate(.5 .5)"><circle cx="10" cy="10" r="10" fill="#186892"/><path d="M15.48 12.55c-.44.45-1.04.48-1.58 0L10 8.8l-3.91 3.75c-.53.48-1.14.45-1.57 0-.44-.44-.41-1.2 0-1.61.41-.42 4.69-4.5 4.69-4.5a1.076 1.076 0 0 1 1.57 0s4.29 4.08 4.7 4.5c.42.42.44 1.17 0 1.61z" fill="#fff"/></g></svg><svg width="74" height="74" viewBox="-10 -10 74 74" id="chevron-circle-dk-blue-large" y="541" xmlns="http://www.w3.org/2000/svg"><g transform="matrix(0 2.7 -2.7 0 55 1)"><circle cx="9.63" cy="10.37" r="9.63" fill="#186892"/><path d="M14.907 12.826c-.424.433-1.002.462-1.522 0L9.63 9.215l-3.766 3.611c-.51.462-1.097.433-1.511 0-.424-.424-.395-1.156 0-1.55.394-.405 4.516-4.334 4.516-4.334a1.039 1.039 0 0 1 1.512 0s4.131 3.929 4.526 4.334c.404.404.423 1.126 0 1.55z" fill="#fff"/></g></svg><svg version="1.1" id="chevron-circle-lt-blue" y="615" viewBox="-10 -10 41 41" width="41" height="41" xmlns="http://www.w3.org/2000/svg"><g transform="translate(.5 .5)"><circle cx="10" cy="10" r="10" fill="#ceebf2"/><path d="M15.48 12.55c-.44.45-1.04.48-1.58 0L10 8.8l-3.91 3.75c-.53.48-1.14.45-1.57 0-.44-.44-.41-1.2 0-1.61.41-.42 4.69-4.5 4.69-4.5a1.076 1.076 0 0 1 1.57 0s4.29 4.08 4.7 4.5c.42.42.44 1.17 0 1.61z"/></g></svg><svg version="1.1" id="chevron-circle-red" y="656" viewBox="-10 -10 41 41" width="41" height="41" xmlns="http://www.w3.org/2000/svg"><g transform="translate(.5 .5)"><circle cx="10" cy="10" r="10" fill="#ad002e"/><path d="M15.48 12.55c-.44.45-1.04.48-1.58 0L10 8.8l-3.91 3.75c-.53.48-1.14.45-1.57 0-.44-.44-.41-1.2 0-1.61.41-.42 4.69-4.5 4.69-4.5a1.076 1.076 0 0 1 1.57 0s4.29 4.08 4.7 4.5c.42.42.44 1.17 0 1.61z" fill="#fff"/></g></svg><svg width="74" height="74" viewBox="-10 -10 74 74" id="chevron-circle-red-large" y="697" xmlns="http://www.w3.org/2000/svg"><g transform="matrix(0 2.6 -2.6 0 53 1)"><circle cx="10" cy="10" r="10" fill="#ad002e"/><path d="M15.48 12.55c-.44.45-1.04.48-1.58 0L10 8.8l-3.91 3.75c-.53.48-1.14.45-1.57 0-.44-.44-.41-1.2 0-1.61.41-.42 4.69-4.5 4.69-4.5a1.076 1.076 0 0 1 1.57 0s4.29 4.08 4.7 4.5c.42.42.44 1.17 0 1.61z" fill="#fff"/></g></svg><svg version="1.1" id="chevron-circle-white" y="771" viewBox="-10 -10 41 41" width="41" height="41" xmlns="http://www.w3.org/2000/svg"><g transform="translate(.5 .5)"><circle cx="10" cy="10" r="10" fill="#fff"/><path d="M15.48 12.55c-.44.45-1.04.48-1.58 0L10 8.8l-3.91 3.75c-.53.48-1.14.45-1.57 0-.44-.44-.41-1.2 0-1.61.41-.42 4.69-4.5 4.69-4.5a1.076 1.076 0 0 1 1.57 0s4.29 4.08 4.7 4.5c.42.42.44 1.17 0 1.61z"/></g></svg><svg viewBox="-11 -11 42 42" width="42" height="42" id="chevron-circle-white-gradient" y="812" xmlns="http://www.w3.org/2000/svg"><radialGradient id="apSVGID_1_" cx="17" cy="4" r="18" gradientTransform="translate(0 8.235) scale(.5882)" gradientUnits="userSpaceOnUse"><stop offset="0" stop-color="#fff"/><stop offset=".667" stop-color="#fff"/><stop offset=".777" stop-color="#fff"/><stop offset=".844" stop-color="#fbfbfb"/><stop offset=".908" stop-color="#f0f0f1"/><stop offset=".972" stop-color="#dcdede"/><stop offset="1" stop-color="#d1d3d4"/></radialGradient><circle cx="10" cy="10" r="10" fill="url(#apSVGID_1_)"/><path d="M7.45 15.47c-.45-.44-.48-1.04 0-1.57l3.74-3.9-3.73-3.9c-.48-.53-.45-1.14 0-1.57.44-.44 1.19-.41 1.61 0 .42.41 4.49 4.68 4.49 4.68.22.22.34.5.34.78s-.11.57-.34.79c0 0-4.07 4.28-4.49 4.68-.42.41-1.17.45-1.62.01z"/></svg><svg viewBox="-10.999 -10.75 40 32.5" width="40" height="32.5" xmlns:bx="https://boxy-svg.com" id="chevron-dkblue" y="854" xmlns="http://www.w3.org/2000/svg"><path d="M17.51 10.214c-.677.688-1.62.741-2.446 0L8.999 4.426l-6.065 5.788c-.827.741-1.771.688-2.442 0-.677-.689-.633-1.849 0-2.495.63-.645 7.285-6.952 7.285-6.952A1.701 1.701 0 0 1 8.999.25c.443 0 .884.172 1.226.517 0 0 6.652 6.307 7.285 6.952.632.646.676 1.806 0 2.495z" bx:origin="0.5 0" fill="#186892"/></svg><svg viewBox="-10.999 -10.75 40 32.5" width="40" height="32.5" xmlns:bx="https://boxy-svg.com" id="chevron-lblue" y="887" xmlns="http://www.w3.org/2000/svg"><path d="M17.51 10.214c-.677.688-1.62.741-2.446 0L8.999 4.426l-6.065 5.788c-.827.741-1.771.688-2.442 0-.677-.689-.633-1.849 0-2.495.63-.645 7.285-6.952 7.285-6.952A1.701 1.701 0 0 1 8.999.25c.443 0 .884.172 1.226.517 0 0 6.652 6.307 7.285 6.952.632.646.676 1.806 0 2.495z" bx:origin="0.5 0" fill="#7fd0d1"/></svg><svg viewBox="-10.999 -10.75 40 32.5" width="40" height="32.5" xmlns:bx="https://boxy-svg.com" id="chevron-white" y="920" xmlns="http://www.w3.org/2000/svg"><path d="M17.51 10.214c-.677.688-1.62.741-2.446 0L8.999 4.426l-6.065 5.788c-.827.741-1.771.688-2.442 0-.677-.689-.633-1.849 0-2.495.63-.645 7.285-6.952 7.285-6.952A1.701 1.701 0 0 1 8.999.25c.443 0 .884.172 1.226.517 0 0 6.652 6.307 7.285 6.952.632.646.676 1.806 0 2.495z" bx:origin="0.5 0" fill="#fff"/></svg><svg viewBox="-11 -11 40 40" width="40" height="40" id="close-blue" y="953" xmlns="http://www.w3.org/2000/svg"><path d="M9 18A9 9 0 1 1 9.001-.001 9 9 0 0 1 9 18zm4.126-11.625a.432.432 0 0 0 0-.613l-.919-.918a.436.436 0 0 0-.613 0L8.99 7.448 6.388 4.844a.436.436 0 0 0-.613 0l-.919.918a.432.432 0 0 0 0 .613L7.459 8.98l-2.603 2.602a.435.435 0 0 0 0 .615l.919.919a.436.436 0 0 0 .613 0l2.602-2.605 2.604 2.605a.436.436 0 0 0 .613 0l.919-.919a.435.435 0 0 0 0-.615L10.523 8.98l2.603-2.605z" fill="#2a7cb8"/></svg><svg viewBox="-11 -11 56 56" width="56" height="56" id="close-gray" y="993" xmlns="http://www.w3.org/2000/svg"><path d="M17 0C7.611 0 0 7.611 0 17s7.611 17 17 17 17-7.611 17-17S26.389 0 17 0zm0 30.812C9.372 30.812 3.187 24.628 3.187 17 3.187 9.372 9.372 3.187 17 3.187c7.628 0 13.812 6.185 13.812 13.813 0 7.628-6.184 13.812-13.812 13.812z" fill="#8f8f8f"/><path d="M21.306 10.11L17 14.416l-4.306-4.306c-1.218 0-2.584 1.366-2.584 2.584L14.416 17l-4.306 4.306c0 1.218 1.365 2.584 2.584 2.584L17 19.583l4.306 4.307c1.218 0 2.584-1.366 2.584-2.584L19.583 17l4.307-4.306c0-1.219-1.366-2.584-2.584-2.584z" fill="#8f8f8f"/></svg><svg viewBox="-11 -11 46 46" width="46" height="46" id="close-lt-gray" y="1049" xmlns="http://www.w3.org/2000/svg"><path d="M12 0C5.372 0 0 5.372 0 12s5.372 12 12 12 12-5.372 12-12S18.628 0 12 0zm0 21.75c-5.384 0-9.75-4.366-9.75-9.75S6.616 2.25 12 2.25s9.75 4.366 9.75 9.75-4.366 9.75-9.75 9.75z" fill="#d8d8d8"/><path d="M15.04 7.136L12 10.176l-3.04-3.04c-.859 0-1.824.965-1.824 1.824l3.04 3.04-3.04 3.04c0 .859.964 1.824 1.824 1.824L12 13.823l3.04 3.041c.859 0 1.824-.965 1.824-1.824L13.823 12l3.041-3.04c0-.86-.965-1.824-1.824-1.824z" fill="#d8d8d8"/></svg><svg viewBox="-10.999 -11 40 37.431" width="40" height="37.431" id="comment-white" y="1095" xmlns="http://www.w3.org/2000/svg"><path d="M18 6.429c0 3.555-4.028 6.428-9 6.428a13.9 13.9 0 0 1-1.456-.08 11.01 11.01 0 0 1-4.621 2.43 8.27 8.27 0 0 1-1.144.222.465.465 0 0 1-.483-.382v-.011c-.05-.251.121-.401.272-.582.632-.713 1.355-1.316 1.828-2.993C1.327 10.286.001 8.468.001 6.429.001 2.883 4.029 0 9.001 0s9 2.873 9 6.429z" fill="#fff"/></svg><svg viewBox="-11 -11 36 41.833" width="36" height="41.833" id="document-search-blue" y="1133" xmlns="http://www.w3.org/2000/svg"><path d="M7.909 14.481c-.684.436-.954.49-1.737.49a3.31 3.31 0 0 1-3.316-3.305A3.311 3.311 0 0 1 6.172 8.36a3.31 3.31 0 0 1 3.316 3.306c0 .781-.204 1.398-.658 1.963l2.424 2.445-.803.803-2.542-2.396zm.453-2.815a2.186 2.186 0 0 0-2.19-2.182 2.185 2.185 0 0 0-2.188 2.182c0 1.205.98 2.183 2.188 2.183 1.209 0 2.19-.978 2.19-2.183zM0 0h9.579L14 5.142v14.691H0V0zm8.84 1.5H1.5v17.03h11V5.88l-2.577-.004c-.813 0-1.081.01-1.081-.813L8.84 1.5z" fill="#14819b"/></svg><svg viewBox="-11 -11 47 36.864" width="47" height="36.864" id="embed-white" y="1175" xmlns="http://www.w3.org/2000/svg"><path d="M16.447 12.037l1.974 1.974L25 7.432 18.421.853l-1.974 1.973 4.606 4.606zM8.553 2.826L6.579.853 0 7.432l6.579 6.579 1.974-1.974-4.606-4.605zM13.76 0l1.428.389-3.947 14.475-1.428-.39L13.76 0z" fill="#fff"/></svg><svg viewBox="-11 -11 39 47" width="39" height="47" id="epub-white" y="1212" xmlns="http://www.w3.org/2000/svg"><path d="M14.874 0H2.124C.951 0 0 .933 0 2.083v20.834C0 24.067.951 25 2.124 25h12.75C16.048 25 17 24.067 17 22.917V2.083C17 .933 16.048 0 14.874 0zM8.478 23.438a1.052 1.052 0 0 1-1.063-1.042c0-.576.476-1.042 1.063-1.042s1.062.466 1.062 1.042c0 .576-.476 1.042-1.062 1.042zm6.396-3.646H2.124L2.34 1.966h12.728l-.194 17.826z" fill="#fff"/><path d="M14.977 11.055c.362.24.121.843-.12 1.325-1.567 3.495-4.218 5.424-7.352 5.424-2.29 0-3.857-1.446-3.857-3.616 0-3.616 4.218-8.799 7.955-8.076 1.084.121 1.687.482 1.687 1.809 0 3.013-3.495 5.182-6.991 5.544v.723c0 1.326.605 2.129 1.929 2.049 2.653-.161 4.58-1.446 6.268-4.098m-4.46-5.062c-1.929-.121-3.616 3.134-3.857 5.785C8.71 12.38 11.362 9.728 11 7.438c-.12-.482-.723-.361-.964-.361z" fill="#fff"/></svg><svg viewBox="-11 -10.999 35.003 33" width="35.003" height="33" id="external-link-blue" y="1259" xmlns="http://www.w3.org/2000/svg"><path d="M13.003 6.449v2.488c0 1.139-.936 2.063-2.089 2.063l-8.825.001C.936 11.001 0 10.077 0 8.938V2.807C0 1.669.936.745 2.089.745h4.385c.13 0 .232.1.232.23v.697a.228.228 0 0 1-.232.229H2.089c-.443-.022-.994.208-.994.838V8.87c0 .482.454 1.017.994 1.017l8.825-.001c.342-.022.915-.393.915-.949V6.449c0-.13.101-.23.231-.23h.711c.131 0 .232.1.232.23zM13 .459v4.035a.465.465 0 0 1-.791.323l-1.375-1.284-5.05 4.693a.252.252 0 0 1-.166.071.257.257 0 0 1-.167-.071l-1.17-1.211a.243.243 0 0 1-.073-.165c0-.057.029-.121.073-.164l5.024-4.62-1.4-1.285A.451.451 0 0 1 7.768.46c0-.252.21-.459.463-.459h4.305c.254 0 .464.207.464.459V.459z" fill="#2b7bba"/></svg><svg width="54" height="49" viewBox="-10 -10 54 49" id="external-link-purple" y="1292" xmlns="http://www.w3.org/2000/svg"><path fill="#7f57a7" fill-opacity=".88" d="M0 0h34v29H0z"/><path d="M27.283 15.973v3.915c0 1.794-1.473 3.247-3.288 3.247l-13.889.002c-1.814 0-3.287-1.455-3.287-3.247v-9.648c0-1.791 1.473-3.246 3.287-3.246h6.902c.204 0 .365.157.365.363v1.096a.36.36 0 0 1-.365.361h-6.902c-.697-.035-1.564.327-1.564 1.319v9.649c0 .758.715 1.601 1.564 1.601l13.889-.001c.539-.037 1.44-.619 1.44-1.496v-3.915c0-.204.159-.363.364-.363h1.118a.36.36 0 0 1 .366.363zm-.005-9.427v6.351c0 .394-.33.722-.729.722a.725.725 0 0 1-.516-.215l-2.164-2.02-7.947 7.386a.402.402 0 0 1-.261.112.41.41 0 0 1-.263-.112l-1.842-1.906a.389.389 0 0 1-.114-.26c0-.09.046-.191.114-.258l7.907-7.271-2.203-2.023a.707.707 0 0 1-.215-.504.73.73 0 0 1 .728-.723h6.776a.73.73 0 0 1 .729.723v-.002z" fill="#fff"/></svg><svg viewBox="-11 -11 30 38" width="30" height="38" id="facebook-blue" y="1341" xmlns="http://www.w3.org/2000/svg"><path d="M5.5 3H8V0H5.5C3.6 0 2 1.6 2 3.5V5H0v3h2v8h3V8h2.5L8 5H5V3.5c0-.3.2-.5.5-.5z" fill="#2b7bba"/></svg><svg viewBox="-11 -11 30 38" width="30" height="38" id="facebook-white" y="1379" xmlns="http://www.w3.org/2000/svg"><path d="M5.5 3H8V0H5.5C3.6 0 2 1.6 2 3.5V5H0v3h2v8h3V8h2.5L8 5H5V3.5c0-.3.2-.5.5-.5z" fill="#fff"/></svg><svg viewBox="-11 -11 132 132" width="132" height="132" id="feedback-large" y="1417" xmlns="http://www.w3.org/2000/svg"><path fill="#F46200" d="M71.845 34.943h-33.69a6.153 6.153 0 0 0-6.19 6.19v22.094a6.153 6.153 0 0 0 6.19 6.189h21.31c.47 0 .941.235 1.254.627l5.876 8.305 1.097-7.6c.079-.784.784-1.332 1.567-1.332h2.586c3.369 0 6.19-2.742 6.19-6.19V41.133a6.153 6.153 0 0 0-6.19-6.189zM70.59 62.13H39.41c-1.097 0-1.959-.862-1.959-1.959s.862-1.959 1.959-1.959h31.18c1.097 0 1.959.862 1.959 1.959s-.862 1.959-1.959 1.959zm0-8.305H39.41c-1.097 0-1.959-.862-1.959-1.959s.862-1.959 1.959-1.959h31.18c1.097 0 1.959.862 1.959 1.96s-.862 1.958-1.959 1.958zm0-7.835H39.41c-1.097 0-1.959-.862-1.959-1.959s.862-1.958 1.959-1.958h31.18c1.097 0 1.959.861 1.959 1.958s-.862 1.959-1.959 1.959z"/><path fill="#F46200" d="M55 0C24.601 0 0 24.601 0 55s24.601 55 55 55 55-24.601 55-55S85.399 0 55 0zm26.09 63.227c0 5.092-4.153 9.245-9.245 9.245H70.59l-1.488 10.106c-.079.627-.549 1.097-1.176 1.254-.156 0-.235.078-.391.078-.47 0-.94-.235-1.254-.627L58.604 72.55H38.155c-5.092 0-9.245-4.153-9.245-9.245V41.132c0-5.092 4.153-9.245 9.245-9.245h33.69c5.092 0 9.245 4.153 9.245 9.245v22.095z"/></svg><svg viewBox="-11.001 -11 40 43" width="40" height="43" id="file-download-gray-o" y="1549" xmlns="http://www.w3.org/2000/svg"><path d="M17.202 4.454c.434.433.797 1.3.797 1.921v13.5c0 .621-.504 1.125-1.125 1.125H1.124a1.125 1.125 0 0 1-1.125-1.125V1.125C-.001.504.503 0 1.124 0h10.5c.621 0 1.488.363 1.922.797zM12 1.594V6h4.406c-.07-.2-.175-.398-.258-.481L12.48 1.851c-.082-.082-.282-.188-.481-.258zM16.5 19.5v-12h-4.875A1.125 1.125 0 0 1 10.5 6.375V1.5h-9v18zm-3.558-4.217a.652.652 0 0 1-.188.456l-3.294 3.3a.651.651 0 0 1-.916 0l-3.295-3.3a.636.636 0 0 1 0-.916l.374-.38a.651.651 0 0 1 .916 0l1.488 1.488V9.405c0-.354.294-.648.648-.648h.648c.354 0 .648.294.648.648v6.526l1.488-1.488a.651.651 0 0 1 .916 0l.379.38a.669.669 0 0 1 .188.46z" fill="#6c6c6c"/></svg><svg viewBox="-11 -11 41 45.594" width="41" height="45.594" id="file-ebook-gray" y="1592" xmlns="http://www.w3.org/2000/svg"><path d="M19 1.481zm0 20.402h-4.828v1.711L0 21.143V2.523L14.172 0v1.479L19 1.481c-.026.002 0 20.402 0 20.402zm-5.719-20.77L.891 3.397v16.864l12.39 2.221zm4.894 20.069v-19l-4.003-.003v19.004zm-5.966-10.48c.336.223.113.784-.112 1.235-1.46 3.257-3.932 5.056-6.853 5.056-2.135 0-3.596-1.348-3.596-3.371 0-3.371 3.932-8.202 7.415-7.528 1.012.112 1.574.449 1.574 1.686 0 2.809-3.259 4.829-6.517 5.168v.674c0 1.236.564 1.984 1.798 1.91 2.472-.151 4.268-1.348 5.843-3.821zM7.603 6.993c-1.799-.113-3.371 2.921-3.595 5.393 2.359-.449 4.831-2.921 4.494-5.056-.112-.45-.675-.337-.899-.337z" fill="#6c6c6c"/></svg><svg viewBox="-11 -11 41 40.653" width="41" height="40.653" id="file-excel-gray" y="1638" xmlns="http://www.w3.org/2000/svg"><path d="M18.646 2.282h-6.365V3.46h1.877v1.864h-1.877v.594h1.877v1.865h-1.877v.613h1.877v1.763h-1.877v.706h1.877v1.77h-1.877v.706h1.877v1.779h-1.877v1.297h6.365c.099-.029.184-.148.251-.354.068-.208.103-.375.103-.503V2.497c0-.101-.036-.161-.103-.183a.856.856 0 0 0-.251-.032zm-.825 12.837h-3.055v-1.778h3.055v1.779zm0-2.486h-3.055v-1.769h3.055v1.769zm0-2.475h-3.055V8.401h3.055v1.758zm0-2.376h-3.055V5.919h3.055v1.864zm0-2.469h-3.055V3.461h3.055v1.864zM0 1.989v14.725l11.209 1.939V0L0 1.995zm6.644 11.138c-.043-.115-.244-.605-.599-1.474a83.475 83.475 0 0 0-.634-1.516h-.02L4.19 12.998l-1.608-.108 1.907-3.563-1.746-3.562 1.638-.086 1.083 2.786h.022l1.223-2.914 1.692-.106-2.014 3.856 2.077 3.932-1.82-.107z" fill="#6c6c6c"/></svg><svg viewBox="-11.001 -11 39 42" width="39" height="42" id="file-pdf-gray-o" y="1679" xmlns="http://www.w3.org/2000/svg"><path d="M16.247 4.241c.409.413.752 1.239.752 1.831v12.857c0 .591-.476 1.071-1.063 1.071H1.061c-.586 0-1.062-.48-1.062-1.071V1.071C-.001.48.475 0 1.061 0h9.917c.587 0 1.405.346 1.815.758l3.454 3.483zm-4.915-2.724l.001 4.198 4.83.075c-.005-.201-.043-.677-.405-1.054l-3.262-3.203c-.077-.078-.725-.767-1.163-.819l-.001.803zm4.884 17.693l-.064-12.653-4.869-.024c-.587 0-.76-.347-.76-.938L10.511.663.708.714.682 19.21h15.534zm-6.322-7.257c.277.224.587.424.93.625.464-.055.896-.078 1.295-.078.741 0 1.682.089 1.959.547.077.112.144.314.022.581-.012.011-.022.033-.034.044v.012c-.033.201-.199.424-.785.424-.708 0-1.782-.324-2.712-.815-1.538.167-3.154.513-4.338.927-1.14 1.964-2.015 2.924-2.678 2.924a.603.603 0 0 1-.311-.079l-.265-.133c-.033-.011-.045-.033-.067-.055-.055-.056-.1-.179-.066-.401.11-.515.708-1.374 2.081-2.099.088-.056.199-.022.254.067.011.012.022.033.022.045.343-.57.742-1.295 1.184-2.198a17.143 17.143 0 0 0 1.151-2.925c-.354-1.217-.464-2.466-.265-3.204.077-.278.243-.445.464-.445h.244c.166 0 .299.055.388.167.132.156.165.401.099.758a.219.219 0 0 1-.044.089c.011.034.011.057.011.09v.335c-.011.703-.022 1.372-.155 2.143.387 1.171.963 2.12 1.616 2.656v-.002zM3.519 16.54c.333-.156.809-.636 1.517-1.764-.83.648-1.35 1.384-1.517 1.764zM7.925 6.272c-.111.313-.111.848-.022 1.474.033-.179.055-.346.077-.491.022-.191.055-.346.077-.48a.316.316 0 0 1 .045-.09c-.012-.011-.012-.033-.022-.056a.657.657 0 0 0-.144-.401c0 .022-.011.033-.011.045v-.001zM6.552 13.65a16.83 16.83 0 0 1 3.143-.905c-.11-.089-.221-.167-.321-.257-.542-.48-1.029-1.148-1.405-1.963-.21.681-.52 1.406-.919 2.198-.165.313-.332.625-.498.927zm7.15-.18c-.056-.055-.343-.267-1.55-.267.542.201 1.04.313 1.372.313.1 0 .155 0 .199-.011 0-.012-.011-.022-.022-.035h.001z" fill="#6c6c6c"/></svg><svg viewBox="-11.001 -11 40 43" width="40" height="43" id="file-pdf-gray-o-thick" y="1721" xmlns="http://www.w3.org/2000/svg"><path d="M17.202 4.454c.434.433.797 1.3.797 1.921v13.5c0 .621-.504 1.125-1.125 1.125H1.124a1.125 1.125 0 0 1-1.125-1.125V1.125C-.001.504.503 0 1.124 0h10.5c.621 0 1.488.363 1.922.797zM12 1.594V6h4.406c-.07-.2-.175-.398-.258-.481L12.48 1.851c-.082-.082-.282-.188-.481-.258zM16.5 19.5v-12h-4.875A1.125 1.125 0 0 1 10.5 6.375V1.5h-9v18h15zm-6.024-6.95c.294.235.621.446.984.657.493-.059.95-.082 1.371-.082.786 0 1.782.094 2.075.575.082.117.152.328.023.608-.012.012-.023.036-.035.048v.012c-.035.21-.211.445-.832.445-.75 0-1.887-.339-2.871-.855-1.629.175-3.339.539-4.594.972-1.206 2.063-2.133 3.071-2.835 3.071a.661.661 0 0 1-.329-.082l-.281-.14c-.035-.012-.047-.036-.07-.059-.059-.058-.106-.187-.071-.421.117-.539.75-1.442 2.203-2.204.094-.058.211-.023.27.071a.086.086 0 0 1 .023.047c.363-.598.785-1.36 1.254-2.309a17.917 17.917 0 0 0 1.219-3.07c-.375-1.277-.492-2.59-.281-3.363.081-.293.258-.469.491-.469h.259c.175 0 .316.059.41.176.14.164.175.421.106.796-.012.035-.024.071-.048.094.012.035.012.059.012.094v.351c-.012.739-.023 1.442-.164 2.251.41 1.23 1.019 2.226 1.711 2.789zm-6.749 4.817c.351-.164.855-.668 1.605-1.852-.879.68-1.429 1.453-1.605 1.852zM8.391 6.586c-.117.328-.117.891-.024 1.547.036-.188.059-.363.082-.516.023-.199.059-.363.082-.504a.36.36 0 0 1 .047-.094c-.012-.012-.012-.035-.023-.058a.682.682 0 0 0-.152-.422c0 .024-.012.036-.012.047zm-1.454 7.746c1.032-.41 2.18-.738 3.329-.95-.117-.094-.235-.175-.34-.269-.575-.504-1.09-1.207-1.488-2.063-.223.715-.55 1.477-.973 2.309-.175.329-.352.656-.527.973zm7.571-.188c-.059-.058-.363-.281-1.641-.281.574.211 1.102.329 1.452.329.106 0 .165 0 .211-.012 0-.013-.012-.024-.023-.036z" fill="#6c6c6c"/></svg><svg viewBox="-11.001 -11 39 42" width="39" height="42" id="file-pdf-white-o" y="1764" xmlns="http://www.w3.org/2000/svg"><path d="M16.247 4.241c.409.413.752 1.239.752 1.831v12.857c0 .591-.476 1.071-1.063 1.071H1.061c-.586 0-1.062-.48-1.062-1.071V1.071C-.001.48.475 0 1.061 0h9.917c.587 0 1.405.346 1.815.758l3.454 3.483zm-4.915-2.724l.001 4.198 4.83.075c-.005-.201-.043-.677-.405-1.054l-3.262-3.203c-.077-.078-.725-.767-1.163-.819l-.001.803zm4.884 17.693l-.064-12.653-4.869-.024c-.587 0-.76-.347-.76-.938L10.511.663.708.714.682 19.21h15.534zm-6.322-7.257c.277.224.587.424.93.625.464-.055.896-.078 1.295-.078.741 0 1.682.089 1.959.547.077.112.144.314.022.581-.012.011-.022.033-.034.044v.012c-.033.201-.199.424-.785.424-.708 0-1.782-.324-2.712-.815-1.538.167-3.154.513-4.338.927-1.14 1.964-2.015 2.924-2.678 2.924a.603.603 0 0 1-.311-.079l-.265-.133c-.033-.011-.045-.033-.067-.055-.055-.056-.1-.179-.066-.401.11-.515.708-1.374 2.081-2.099.088-.056.199-.022.254.067.011.012.022.033.022.045.343-.57.742-1.295 1.184-2.198a17.143 17.143 0 0 0 1.151-2.925c-.354-1.217-.464-2.466-.265-3.204.077-.278.243-.445.464-.445h.244c.166 0 .299.055.388.167.132.156.165.401.099.758a.219.219 0 0 1-.044.089c.011.034.011.057.011.09v.335c-.011.703-.022 1.372-.155 2.143.387 1.171.963 2.12 1.616 2.656v-.002zM3.519 16.54c.333-.156.809-.636 1.517-1.764-.83.648-1.35 1.384-1.517 1.764zM7.925 6.272c-.111.313-.111.848-.022 1.474.033-.179.055-.346.077-.491.022-.191.055-.346.077-.48a.316.316 0 0 1 .045-.09c-.012-.011-.012-.033-.022-.056a.657.657 0 0 0-.144-.401c0 .022-.011.033-.011.045v-.001zM6.552 13.65a16.83 16.83 0 0 1 3.143-.905c-.11-.089-.221-.167-.321-.257-.542-.48-1.029-1.148-1.405-1.963-.21.681-.52 1.406-.919 2.198-.165.313-.332.625-.498.927zm7.15-.18c-.056-.055-.343-.267-1.55-.267.542.201 1.04.313 1.372.313.1 0 .155 0 .199-.011 0-.012-.011-.022-.022-.035h.001z" fill="#fff"/></svg><svg viewBox="-11.001 -11 40 43" width="40" height="43" id="file-pdf-white-o-thick" y="1806" xmlns="http://www.w3.org/2000/svg"><path d="M17.202 4.454c.434.433.797 1.3.797 1.921v13.5c0 .621-.504 1.125-1.125 1.125H1.124a1.125 1.125 0 0 1-1.125-1.125V1.125C-.001.504.503 0 1.124 0h10.5c.621 0 1.488.363 1.922.797zM12 1.594V6h4.406c-.07-.2-.175-.398-.258-.481L12.48 1.851c-.082-.082-.282-.188-.481-.258zM16.5 19.5v-12h-4.875A1.125 1.125 0 0 1 10.5 6.375V1.5h-9v18h15zm-6.024-6.95c.294.235.621.446.984.657.493-.059.95-.082 1.371-.082.786 0 1.782.094 2.075.575.082.117.152.328.023.608-.012.012-.023.036-.035.048v.012c-.035.21-.211.445-.832.445-.75 0-1.887-.339-2.871-.855-1.629.175-3.339.539-4.594.972-1.206 2.063-2.133 3.071-2.835 3.071a.661.661 0 0 1-.329-.082l-.281-.14c-.035-.012-.047-.036-.07-.059-.059-.058-.106-.187-.071-.421.117-.539.75-1.442 2.203-2.204.094-.058.211-.023.27.071a.086.086 0 0 1 .023.047c.363-.598.785-1.36 1.254-2.309a17.917 17.917 0 0 0 1.219-3.07c-.375-1.277-.492-2.59-.281-3.363.081-.293.258-.469.491-.469h.259c.175 0 .316.059.41.176.14.164.175.421.106.796-.012.035-.024.071-.048.094.012.035.012.059.012.094v.351c-.012.739-.023 1.442-.164 2.251.41 1.23 1.019 2.226 1.711 2.789zm-6.749 4.817c.351-.164.855-.668 1.605-1.852-.879.68-1.429 1.453-1.605 1.852zM8.391 6.586c-.117.328-.117.891-.024 1.547.036-.188.059-.363.082-.516.023-.199.059-.363.082-.504a.36.36 0 0 1 .047-.094c-.012-.012-.012-.035-.023-.058a.682.682 0 0 0-.152-.422c0 .024-.012.036-.012.047zm-1.454 7.746c1.032-.41 2.18-.738 3.329-.95-.117-.094-.235-.175-.34-.269-.575-.504-1.09-1.207-1.488-2.063-.223.715-.55 1.477-.973 2.309-.175.329-.352.656-.527.973zm7.571-.188c-.059-.058-.363-.281-1.641-.281.574.211 1.102.329 1.452.329.106 0 .165 0 .211-.012 0-.013-.012-.024-.023-.036z" fill="#fff"/></svg><svg viewBox="-11 -11 41 40.003" width="41" height="40.003" id="file-ppt-gray" y="1849" xmlns="http://www.w3.org/2000/svg"><path d="M18.592 2.668h-6.763V5.19c.408-.308.897-.465 1.469-.465v2.452h2.434c-.012.688-.25 1.268-.713 1.737-.463.468-1.044.709-1.733.724a2.531 2.531 0 0 1-1.448-.487v1.686h5.318v.827h-5.32v1.024h5.316v.816h-5.319v1.852h6.763c.273 0 .404-.142.404-.425V3.071c0-.269-.131-.403-.404-.403zM13.68 6.773V4.3c.689.015 1.267.255 1.733.721.463.465.704 1.049.718 1.752H13.68zm-7.144.042a.753.753 0 0 0-.208-.373.865.865 0 0 0-.382-.196 2.111 2.111 0 0 0-.547-.071l-.569.012v2.374h.02c.206.012.424.012.653 0 .225-.012.439-.071.641-.178.247-.178.395-.416.443-.724.047-.309.03-.606-.051-.879zM0 1.923v14.208l10.837 1.872V0L0 1.923zm8.085 6.402c-.297.688-.74 1.128-1.332 1.317a5.22 5.22 0 0 1-1.923.222v2.71l-1.427-.167V4.965l2.264-.119a3.5 3.5 0 0 1 1.24.143c.407.121.729.364.968.73.237.364.371.788.403 1.27.03.483-.033.928-.192 1.336z" fill="#6c6c6c"/></svg><svg viewBox="-11 -11 41 40" width="41" height="40" id="file-word-gray" y="1890" xmlns="http://www.w3.org/2000/svg"><path d="M18.999 2.452V15.56a.35.35 0 0 1-.119.273.405.405 0 0 1-.285.109H11.82v-1.818h5.527v-.829h-5.532v-1.012h5.527v-.828h-5.524v-1.021h5.528v-.818h-5.528V8.592h5.528v-.827h-5.528V6.753h5.528v-.827h-5.528V4.893h5.528v-.787h-5.528V2.05h6.778c.119 0 .214.038.285.119a.373.373 0 0 1 .119.283zM10.806.002V18L0 16.129V1.925L10.806 0zM9.175 5.316l-1.353.083-.867 5.375h-.02c-.043-.255-.202-1.145-.487-2.667l-.506-2.585-1.271.063-.507 2.522a168.885 168.885 0 0 0-.506 2.563h-.011l-.772-4.951-1.164.062 1.247 6.244 1.294.083.487-2.43c.285-1.425.451-2.254.487-2.481h.035c.048.241.202 1.089.487 2.543l.487 2.502 1.401.083 1.568-7.009z" fill="#6c6c6c"/></svg><svg viewBox="-11 -11 44 37" width="44" height="37" id="font-size-blue" y="1930" xmlns="http://www.w3.org/2000/svg"><path d="M5.098 6.224l1.658 4.3-3.039-.01 1.381-4.29zM2.259 15l1.023-3.017 3.818.038L8.297 15h2.137L6.442 4.04H4.066L0 15h2.259z" stroke-width="0" stroke="#b22222" fill="#5aa1dc"/><path d="M14.699 2.989l2.267 5.884-4.158-.013 1.891-5.871zM10.813 15l1.399-4.129 5.226.052L19.076 15H22L16.536 0h-3.25L7.721 15h3.092z" stroke-width="0" stroke="#b22222" fill="#317eba"/></svg><svg viewBox="-11 -11 44 44" width="44" height="44" id="gov-delivery-blue" y="1967" xmlns="http://www.w3.org/2000/svg"><path d="M19.367 12.148c-.001.35-.36.778-.711.775l-5.271-5.982-1.983 1.667c-.22.081-.482.083-.703.007L8.577 6.941l-5.31 6.057c-.35.004-.705-.425-.709-.775l5.099-5.852-5.626-4.389c-.029-.349.361-.741.71-.775l8.296 6.117 7.882-6.079c.35.03.737.426.711.775l-5.438 4.389 5.175 5.739zM1.763 0C.789 0 0 .859 0 1.915v11.537c0 1.058.783 1.915 1.763 1.915l2.982-.242-2.964 6.091c-.152 1.172.502.68.84.688l11.19-6.537h6.425c.974 0 1.764-.859 1.764-1.915V1.915C22 .857 21.217 0 20.236 0H1.763z" fill="#2b7bba"/></svg><svg viewBox="-11 -11 40 40" width="40" height="40" id="gov-delivery-white" y="2011" xmlns="http://www.w3.org/2000/svg"><path d="M15.846 9.94c-.001.286-.295.635-.582.634l-4.312-4.895-1.623 1.364a.879.879 0 0 1-.575.005L7.017 5.679l-4.344 4.955c-.287.004-.576-.347-.58-.634l4.172-4.788-4.603-3.59c-.024-.285.295-.606.58-.635L9.03 5.992l6.449-4.974c.286.025.604.349.582.634l-4.449 3.592 4.234 4.696zM1.443 0C.645 0 0 .703 0 1.567v9.44c0 .864.64 1.566 1.443 1.566l2.439-.198-2.425 4.984c-.124.958.41.556.688.562l9.154-5.348h5.257c.798 0 1.444-.702 1.444-1.566v-9.44C18 .701 17.36 0 16.556 0H1.443z" fill="#fff"/></svg><svg viewBox="-11 -11 47 47" width="47" height="47" id="info" y="2051" xmlns="http://www.w3.org/2000/svg"><path d="M11.705.024C5.495.414.415 5.492.025 11.7a12.485 12.485 0 0 0 13.28 13.276c6.209-.38 11.29-5.468 11.67-11.666A12.48 12.48 0 0 0 11.705.024zm2.75 21.993h-3.9V10.131h3.9v11.886zm.629-15.575a2.579 2.579 0 1 1-5.159 0v-.12a2.578 2.578 0 1 1 5.159 0v.12z" fill="#fff"/></svg><svg viewBox="-11 -11 40 40" width="40" height="40" xmlns:bx="https://boxy-svg.com" id="instagram-blue" y="2098" xmlns="http://www.w3.org/2000/svg"><path d="M9 0C6.555 0 6.249.011 5.29.054 4.331.099 3.679.25 3.105.472a4.393 4.393 0 0 0-1.594 1.039A4.372 4.372 0 0 0 .472 3.105C.25 3.679.098 4.331.054 5.29.009 6.249 0 6.555 0 9c0 2.445.011 2.751.054 3.71.045.959.196 1.612.418 2.185.23.592.538 1.095 1.039 1.594.499.501 1.001.81 1.594 1.038.574.223 1.226.375 2.185.419.959.045 1.265.054 3.71.054 2.445 0 2.751-.011 3.71-.054.959-.045 1.612-.196 2.185-.419a4.377 4.377 0 0 0 1.594-1.038 4.356 4.356 0 0 0 1.038-1.594c.223-.574.375-1.226.419-2.185.045-.959.054-1.265.054-3.71 0-2.445-.011-2.751-.054-3.71-.045-.959-.196-1.612-.419-2.185a4.377 4.377 0 0 0-1.038-1.594A4.372 4.372 0 0 0 14.895.472C14.321.25 13.669.098 12.71.054 11.751.009 11.445 0 9 0zM5.32 1.641c.956-.033 6.369-.01 7.317.033.878.04 1.353.187 1.671.31.42.164.72.358 1.035.673.315.315.509.614.672 1.035.124.317.27.793.311 1.671.043.949.053 1.234.053 3.637s-.011 2.689-.056 3.637c-.045.878-.192 1.353-.315 1.671-.169.42-.36.72-.675 1.035a2.816 2.816 0 0 1-1.035.672c-.315.124-.799.27-1.677.311-.956.043-1.237.053-3.645.053-2.407 0-2.688-.011-3.645-.056-.877-.045-1.361-.192-1.676-.315a2.808 2.808 0 0 1-1.035-.675 2.761 2.761 0 0 1-.675-1.035c-.124-.315-.27-.799-.315-1.677-.034-.945-.045-1.237-.045-3.633 0-2.397.011-2.689.045-3.645.045-.878.191-1.362.315-1.677.158-.427.36-.72.675-1.035a2.677 2.677 0 0 1 1.035-.675c.315-.123.788-.27 1.665-.315zM9 4.378a4.622 4.622 0 1 0 0 9.243 4.622 4.622 0 0 0 0-9.243zM9 12a3 3 0 1 1 0-6 3 3 0 0 1 0 6zm5.884-7.804a1.08 1.08 0 1 1-2.161-.001 1.08 1.08 0 0 1 2.161.001z" bx:origin="0.5 0.5" fill="#2b7bba"/></svg><svg viewBox="-11 -11 40 40" width="40" height="40" xmlns:bx="https://boxy-svg.com" id="instagram-white" y="2138" xmlns="http://www.w3.org/2000/svg"><path d="M9 0C6.555 0 6.249.011 5.29.054 4.331.099 3.679.25 3.105.472a4.393 4.393 0 0 0-1.594 1.039A4.372 4.372 0 0 0 .472 3.105C.25 3.679.098 4.331.054 5.29.009 6.249 0 6.555 0 9c0 2.445.011 2.751.054 3.71.045.959.196 1.612.418 2.185.23.592.538 1.095 1.039 1.594.499.501 1.001.81 1.594 1.038.574.223 1.226.375 2.185.419.959.045 1.265.054 3.71.054 2.445 0 2.751-.011 3.71-.054.959-.045 1.612-.196 2.185-.419a4.377 4.377 0 0 0 1.594-1.038 4.356 4.356 0 0 0 1.038-1.594c.223-.574.375-1.226.419-2.185.045-.959.054-1.265.054-3.71 0-2.445-.011-2.751-.054-3.71-.045-.959-.196-1.612-.419-2.185a4.377 4.377 0 0 0-1.038-1.594A4.372 4.372 0 0 0 14.895.472C14.321.25 13.669.098 12.71.054 11.751.009 11.445 0 9 0zM5.32 1.641c.956-.033 6.369-.01 7.317.033.878.04 1.353.187 1.671.31.42.164.72.358 1.035.673.315.315.509.614.672 1.035.124.317.27.793.311 1.671.043.949.053 1.234.053 3.637s-.011 2.689-.056 3.637c-.045.878-.192 1.353-.315 1.671-.169.42-.36.72-.675 1.035a2.816 2.816 0 0 1-1.035.672c-.315.124-.799.27-1.677.311-.956.043-1.237.053-3.645.053-2.407 0-2.688-.011-3.645-.056-.877-.045-1.361-.192-1.676-.315a2.808 2.808 0 0 1-1.035-.675 2.761 2.761 0 0 1-.675-1.035c-.124-.315-.27-.799-.315-1.677-.034-.945-.045-1.237-.045-3.633 0-2.397.011-2.689.045-3.645.045-.878.191-1.362.315-1.677.158-.427.36-.72.675-1.035a2.677 2.677 0 0 1 1.035-.675c.315-.123.788-.27 1.665-.315zM9 4.378a4.622 4.622 0 1 0 0 9.243 4.622 4.622 0 0 0 0-9.243zM9 12a3 3 0 1 1 0-6 3 3 0 0 1 0 6zm5.884-7.804a1.08 1.08 0 1 1-2.161-.001 1.08 1.08 0 0 1 2.161.001z" bx:origin="0.5 0.5" fill="#fff"/></svg><svg viewBox="-11 -11 83 83" width="83" height="83" id="lightbulb-circle-yellow" y="2178" xmlns="http://www.w3.org/2000/svg"><defs><style>.bust1{fill:#fff}</style></defs><circle cx="30.5" cy="30.5" r="30.5" fill="#ffbf17"/><path class="bust1" d="M30 17.8c-6.3 0-11.4 5-11.4 11.1 0 4 1.6 6.3 2.8 8 .7 1.1 1.1 1.7 1.1 2.3 0 1.4.8 2.8 2.1 3.8 0 .9.2 2.9.2 2.9 0 .6.3 1.8 2.4 2.5.2.4.6.7.9.9.2.2.5.2.8.2h2.2c.3 0 .6-.1.8-.2.4-.3.7-.6.9-.9 2-.7 2.3-1.9 2.4-2.5 0 0 .1-2.1.2-2.9 1.4-1 2.1-2.4 2.1-3.8 0-.6.4-1.3 1.1-2.4 1.2-1.7 2.8-4.1 2.8-8 0-6.1-5.1-11-11.4-11zm6.3 17.5c-.8 1.2-1.6 2.4-1.6 4 0 .7-.6 1.2-1.1 1.6h-7.1c-.5-.3-1.1-.9-1.1-1.6 0-1.6-.8-2.7-1.7-4-1.1-1.6-2.3-3.3-2.3-6.4 0-4.5 3.8-8.2 8.5-8.2s8.5 3.7 8.5 8.2c.2 3-1.1 4.8-2.1 6.4zM30 15.6c.4 0 .7-.3.7-.7v-2.2c0-.4-.3-.7-.7-.7-.4 0-.7.3-.7.7v2.2c0 .4.3.7.7.7zm-7.7 1.5c.1.2.4.4.6.4.1 0 .2 0 .4-.1.3-.2.5-.6.3-1l-1.1-1.9c-.2-.3-.6-.5-1-.3-.3.2-.5.6-.3 1l1.1 1.9zm-4.2 4.2l-1.9-1.1c-.3-.2-.8-.1-1 .3-.2.3-.1.8.3 1l1.9 1.1c.1.1.2.1.4.1.3 0 .5-.1.6-.4.2-.3.1-.8-.3-1zM16.6 29c0-.4-.3-.7-.7-.7h-2.2c-.4 0-.7.3-.7.7 0 .4.3.7.7.7h2.2c.4 0 .7-.3.7-.7zm.8 6.4l-1.9 1.1c-.3.2-.5.6-.3 1 .1.2.4.4.6.4.1 0 .2 0 .4-.1l1.9-1.1c.3-.2.5-.6.3-1-.2-.3-.6-.5-1-.3zm27.1 1.1l-1.9-1.1c-.3-.2-.8-.1-1 .3-.2.3-.1.8.3 1l1.9 1.1c.1.1.2.1.4.1s.5-.1.6-.4c.1-.3 0-.8-.3-1zm1.8-8.2h-2.2c-.4 0-.7.3-.7.7 0 .4.3.7.7.7h2.2c.4 0 .7-.3.7-.7 0-.4-.3-.7-.7-.7zm-4.1-5.6c.1 0 .2 0 .4-.1l1.9-1.1c.3-.2.5-.6.3-1-.2-.3-.6-.5-1-.3l-1.9 1.1c-.3.2-.5.6-.3 1 .1.2.4.4.6.4zm-5.5-5.3c.1.1.2.1.4.1s.5-.1.6-.4l1.1-1.9c.2-.3.1-.8-.3-1-.3-.2-.8-.1-1 .3l-1.1 1.9c-.2.4 0 .8.3 1zm0 0"/><path class="bust1" d="M29 33.4c.1.6.4.8 1 .8s.9-.2 1-.8l.7-5.2c0-.4.1-.7.1-1v-2.6c0-1.1-.6-1.7-1.7-1.7s-1.7.6-1.7 1.7v2.6c0 .3 0 .7.1 1l.5 5.2zm1 2.2c-1 0-1.8.8-1.8 1.8s.8 1.8 1.8 1.8 1.8-.8 1.8-1.8-.8-1.8-1.8-1.8zm0 0"/></svg><svg viewBox="-11 -11 36 35" width="36" height="35" id="linkedin-blue" y="2261" xmlns="http://www.w3.org/2000/svg"><path d="M5 4h2.767v1.418h.04C8.192 4.727 9.134 4 10.539 4 13.46 4 14 5.818 14 8.183V13h-2.885V8.73c0-1.018-.021-2.329-1.5-2.329-1.502 0-1.732 1.109-1.732 2.255V13H5V4zM0 4h3v9H0V4zm3-2.5a1.5 1.5 0 1 1-3.001-.001A1.5 1.5 0 0 1 3 1.5z" fill="#2b7bba"/></svg><svg viewBox="-11 -11 36 35" width="36" height="35" id="linkedin-white" y="2296" xmlns="http://www.w3.org/2000/svg"><path d="M5 4h2.767v1.418h.04C8.192 4.727 9.134 4 10.539 4 13.46 4 14 5.818 14 8.183V13h-2.885V8.73c0-1.018-.021-2.329-1.5-2.329-1.502 0-1.732 1.109-1.732 2.255V13H5V4zM0 4h3v9H0V4zm3-2.5a1.5 1.5 0 1 1-3.001-.001A1.5 1.5 0 0 1 3 1.5z" fill="#fff"/></svg><svg viewBox="-11 -11 186 76" width="186" height="76" id="live-help-logo" y="2331" xmlns="http://www.w3.org/2000/svg"><path d="M141.099 0c-12.643 0-22.902 10.179-22.902 22.723 0 1.912.27 3.763.725 5.573l-.062.061c.456 1.83.684 3.763.539 5.779a17.783 17.783 0 0 1-5.326 11.536 18.514 18.514 0 0 1 12.269-3.599c1.534.124 3.005.432 4.373.884a22.996 22.996 0 0 0 10.342 2.447c12.643 0 22.902-10.179 22.902-22.722C164 10.179 153.74 0 141.099 0zm3.088 34.465h-5.037v-4.648h5.037v4.648zm4.87-15.958c-.27 1.11-.974 2.344-1.844 3.105-1.472 1.316-3.482 2.18-3.006 4.792h-5.036c-.456-2.077-.207-3.866 1.534-5.203 1.015-.802 2.072-1.542 2.963-2.447.788-.823.87-1.892.228-2.92-.6-1.008-1.554-1.46-2.673-1.234-1.12.206-1.845.946-2.093 2.077-.083.309-.125.658-.166 1.11h-4.974c.145-1.11.145-2.2.456-3.207 1.202-3.62 5.409-5.655 9.368-4.566 3.71 1.05 6.134 4.75 5.243 8.493zm-37.181 29.057l.083-.083c-.021.041-.063.062-.083.083z" fill="#00B4BA"/><path fill="#1F74A6" d="M0 31.195V13.531h3.98v14.148h7.543v3.516H0zm14.86-15.32a2.101 2.101 0 0 1-.642-1.563c0-.637.207-1.151.642-1.563a2.153 2.153 0 0 1 1.575-.658c.643 0 1.16.227 1.575.658.436.432.643.946.643 1.563 0 .638-.228 1.152-.643 1.563a2.153 2.153 0 0 1-1.575.658c-.6-.02-1.14-.226-1.575-.658zm3.503 15.32h-3.814V17.602h3.793v13.593h.02zm7.792 0l-5.388-13.634h3.98l3.398 8.575 3.4-8.575h3.978l-5.409 13.634h-3.959zM49.7 29.22c-1.555 1.46-3.337 2.18-5.41 2.18-2.072 0-3.793-.637-5.16-1.912-1.348-1.295-2.052-2.982-2.052-5.12 0-2.139.684-3.825 2.072-5.12 1.389-1.255 3.026-1.892 4.891-1.892 1.866 0 3.482.575 4.788 1.686 1.326 1.151 1.948 2.694 1.948 4.647v2.036H40.83c.124.74.518 1.337 1.181 1.83.664.494 1.41.72 2.239.72 1.326 0 2.445-.452 3.316-1.337l2.135 2.283zm-3.648-8.04c-.518-.431-1.16-.658-1.928-.658-.746 0-1.43.227-2.072.68-.643.451-.974 1.048-1.099 1.85h5.99c-.062-.823-.373-1.46-.891-1.871z"/><path fill="#833C8E" d="M65.492 13.551h3.98v17.665h-3.98v-6.95h-7.046v6.95h-3.98V13.55h3.98v7.362h7.046V13.55zm20.27 15.669c-1.555 1.46-3.337 2.18-5.41 2.18-2.072 0-3.792-.637-5.16-1.912-1.347-1.295-2.052-2.982-2.052-5.12 0-2.139.684-3.825 2.072-5.12 1.39-1.255 3.026-1.892 4.892-1.892 1.865 0 3.482.575 4.787 1.686 1.327 1.151 1.948 2.694 1.948 4.647v2.036h-9.948c.125.74.518 1.337 1.182 1.83.663.494 1.409.72 2.238.72 1.326 0 2.446-.452 3.316-1.337l2.135 2.283zm-3.669-8.04c-.518-.431-1.16-.658-1.927-.658-.746 0-1.43.227-2.073.68-.642.451-.974 1.048-1.098 1.85h5.99c-.042-.823-.374-1.46-.892-1.871zm11.835 10.015h-3.793V12.462h3.793v18.733zm12.082-13.819c1.576 0 3.026.658 4.27 1.974 1.243 1.316 1.865 3.003 1.865 4.997 0 1.995-.642 3.681-1.865 5.038-1.223 1.358-2.715 2.036-4.373 2.036-1.658 0-3.026-.658-4.042-1.994v6.683h-3.792V17.623h3.792v1.522c1.182-1.172 2.55-1.769 4.145-1.769zm-4.186 7.054c0 1.11.31 1.994.912 2.714.6.679 1.347 1.049 2.238 1.049s1.637-.35 2.3-1.049c.664-.679.975-1.604.975-2.694 0-1.09-.311-1.995-.974-2.735-.643-.74-1.41-1.11-2.3-1.11-.892 0-1.638.37-2.28 1.09-.581.699-.871 1.624-.871 2.735z"/><path d="M12.207 50.134c-1.388 0-2.59-.452-3.565-1.398-1.015-.946-1.492-2.18-1.492-3.681 0-1.522.518-2.735 1.555-3.722 1.036-.946 2.3-1.419 3.834-1.419 1.534 0 2.756.514 3.793 1.542l-1.244 1.522c-.87-.74-1.72-1.11-2.611-1.11-.87 0-1.638.287-2.28.863-.643.576-.974 1.316-.974 2.221s.31 1.686.953 2.324c.643.637 1.41.946 2.363.946.912 0 1.824-.432 2.653-1.255l1.243 1.337c-1.223 1.234-2.632 1.83-4.228 1.83zm14.757-.124h-1.907v-1.315c-.829.966-1.927 1.48-3.316 1.48-1.036 0-1.907-.288-2.59-.884-.685-.576-1.037-1.378-1.037-2.344 0-.967.373-1.707 1.098-2.2.726-.494 1.7-.72 2.943-.72h2.715v-.37c0-1.317-.746-1.975-2.217-1.975-.912 0-1.907.35-2.881 1.008l-.953-1.316c1.202-.967 2.59-1.419 4.124-1.419 1.181 0 2.135.288 2.88.884.747.597 1.12 1.522 1.12 2.797v6.375h.02zm-2.114-3.7v-.823h-2.363c-1.534 0-2.28.493-2.28 1.419 0 .493.208.863.58 1.11.374.247.892.37 1.555.37.663 0 1.264-.205 1.762-.576.518-.35.746-.863.746-1.5zm7.523-1.687v5.367H30.26v-9.912h2.093v1.81c.353-.596.809-1.09 1.41-1.419a3.973 3.973 0 0 1 1.927-.514c1.12 0 2.052.35 2.736 1.028.684.679 1.036 1.686 1.036 2.982v6.066h-2.093v-5.45c0-1.83-.746-2.734-2.28-2.734-.725 0-1.347.226-1.907.72-.56.431-.808 1.151-.808 2.056zm14.819 5.511c-1.389 0-2.59-.452-3.565-1.398-1.016-.946-1.492-2.18-1.492-3.681 0-1.522.518-2.735 1.554-3.722 1.036-.946 2.3-1.419 3.834-1.419 1.534 0 2.757.514 3.793 1.542l-1.243 1.522c-.87-.74-1.72-1.11-2.612-1.11-.87 0-1.637.287-2.28.863-.642.576-.974 1.316-.974 2.221s.311 1.686.954 2.324c.642.637 1.409.946 2.362.946.912 0 1.824-.432 2.653-1.255l1.244 1.337c-1.265 1.234-2.632 1.83-4.228 1.83zm16.02-4.194h-7.834c.062.719.373 1.315 1.016 1.747a3.562 3.562 0 0 0 2.093.658c1.244 0 2.197-.39 2.86-1.172l1.202 1.316c-1.057 1.11-2.466 1.666-4.207 1.666-1.41 0-2.59-.453-3.565-1.399-.974-.905-1.471-2.18-1.471-3.742 0-1.563.497-2.797 1.492-3.722 1.015-.905 2.197-1.378 3.544-1.378s2.508.39 3.461 1.234c.954.843 1.43 1.933 1.43 3.372v1.42h-.02zM55.4 44.314h5.74c0-.823-.269-1.481-.787-1.913a2.97 2.97 0 0 0-1.927-.678 3.34 3.34 0 0 0-2.073.678c-.663.494-.953 1.11-.953 1.913zm15.73-2.282c-1.037 0-1.824.35-2.342 1.008-.519.678-.788 1.562-.788 2.714v4.257h-2.093v-9.912H68v1.995a4.354 4.354 0 0 1 1.389-1.543 3.684 3.684 0 0 1 1.844-.637l.02 2.118h-.123zm1.865 7.711a1.374 1.374 0 0 1-.394-1.007c0-.412.145-.72.394-.967.249-.247.6-.39.974-.39.373 0 .725.143 1.015.39.29.247.394.597.394.967s-.145.72-.394 1.007c-.29.288-.6.391-1.015.391-.373 0-.705-.123-.974-.39zm14.756-9.665v8.658c0 1.748-.497 3.064-1.43 3.948-.953.884-2.197 1.316-3.689 1.316s-2.86-.452-4.062-1.398l1.016-1.604c.974.74 1.948 1.11 2.963 1.11 1.016 0 1.783-.267 2.363-.781.58-.514.87-1.316.87-2.447v-1.255a3.502 3.502 0 0 1-1.347 1.399c-.58.35-1.243.514-1.948.514-1.326 0-2.425-.453-3.254-1.378-.87-.905-1.264-2.056-1.264-3.434 0-1.378.435-2.509 1.264-3.434.87-.905 1.928-1.378 3.254-1.378 1.327 0 2.384.535 3.233 1.624v-1.48h2.031zm-7.813 4.586a3.3 3.3 0 0 0 .746 2.118c.518.597 1.181.884 2.052.884.87 0 1.554-.287 2.072-.863a3.116 3.116 0 0 0 .809-2.139c0-.843-.27-1.563-.809-2.18-.539-.596-1.243-.884-2.072-.884-.87 0-1.534.309-2.052.905a3.414 3.414 0 0 0-.746 2.16zm19.565 3.989c-1.016 1.008-2.239 1.481-3.752 1.481s-2.756-.493-3.751-1.48c-1.016-1.008-1.492-2.2-1.492-3.62 0-1.419.497-2.632 1.492-3.619.995-.987 2.238-1.48 3.751-1.48s2.757.493 3.752 1.48c1.015 1.008 1.492 2.2 1.492 3.62 0 1.418-.498 2.652-1.492 3.618zm-6.031-1.274c.6.596 1.347.904 2.238.904s1.679-.308 2.238-.904c.601-.597.891-1.378.891-2.345 0-.966-.29-1.748-.89-2.344-.602-.596-1.348-.905-2.24-.905-.89 0-1.678.309-2.237.905-.601.596-.892 1.378-.892 2.344.042.967.311 1.748.892 2.345zm12.766 2.631l-4-9.911h2.197l3.047 7.506 3.047-7.506h2.196l-4.082 9.912h-2.405z" fill="#606161"/></svg><svg viewBox="-11 -11 186 94" width="186" height="94" id="live-help-logo-spanish" y="2407" xmlns="http://www.w3.org/2000/svg"><defs><style>.bycls-1{isolation:isolate}.bycls-4{fill:#606060}</style></defs><path d="M0 30.884V13.243h3.964v14.133h7.573v3.508zm15.005-15.307a2.244 2.244 0 0 1 0-3.155 2.282 2.282 0 0 1 3.177 0 2.244 2.244 0 0 1 0 3.155 2.281 2.281 0 0 1-3.177 0zM18.5 30.884h-3.812V17.306H18.5zm7.928 0L21.015 17.28h3.964l3.406 8.555 3.405-8.555h3.964L30.34 30.884zm23.683-1.969a7.671 7.671 0 0 1-5.425 2.17q-3.113 0-5.146-1.905t-2.033-5.11q0-3.205 2.071-5.098a7.011 7.011 0 0 1 4.892-1.893q2.82 0 4.79 1.69 1.97 1.692 1.97 4.644v2.02h-9.962a2.696 2.696 0 0 0 1.17 1.817 3.757 3.757 0 0 0 2.235.706q2.007 0 3.304-1.337zm-3.659-8.05a2.9 2.9 0 0 0-1.918-.657 3.45 3.45 0 0 0-2.071.682 2.603 2.603 0 0 0-1.093 1.842h5.997q-.127-1.211-.915-1.868z" fill="#1e74a6"/><path d="M65.454 13.243h3.964v17.64h-3.964v-6.94h-7.065v6.94h-3.964v-17.64h3.964v7.37h7.065zm20.431 15.672a7.672 7.672 0 0 1-5.426 2.17q-3.113 0-5.146-1.905t-2.033-5.11q0-3.205 2.071-5.098a7.011 7.011 0 0 1 4.892-1.893q2.82 0 4.79 1.69 1.97 1.692 1.97 4.644v2.02H77.04a2.696 2.696 0 0 0 1.17 1.817 3.757 3.757 0 0 0 2.235.706q2.008 0 3.304-1.337zm-3.66-8.05a2.9 2.9 0 0 0-1.918-.657 3.45 3.45 0 0 0-2.071.682 2.603 2.603 0 0 0-1.093 1.842h5.997q-.128-1.211-.915-1.868zm11.969 10.019h-3.812V12.157h3.812zm12.197-13.805q2.389 0 4.257 1.98 1.868 1.982 1.868 4.985 0 3.004-1.868 5.023-1.868 2.02-4.37 2.019a4.825 4.825 0 0 1-4.029-1.994v6.688h-3.811V17.306h3.811v1.514a5.683 5.683 0 0 1 4.142-1.741zm-4.193 7.029q0 1.653.928 2.7a2.896 2.896 0 0 0 2.249 1.047 3.09 3.09 0 0 0 2.312-1.047q.991-1.047.991-2.688 0-1.64-.965-2.75-.966-1.111-2.313-1.111a2.868 2.868 0 0 0-2.274 1.098q-.928 1.097-.928 2.75z" fill="#823b8d"/><g class="bycls-1"><path class="bycls-4" d="M10.229 50.098a5.06 5.06 0 0 1-3.585-1.407q-1.502-1.407-1.502-3.682 0-2.274 1.568-3.7 1.567-1.426 3.82-1.426a5.202 5.202 0 0 1 3.81 1.548l-1.24 1.51q-1.295-1.119-2.608-1.119a3.304 3.304 0 0 0-2.28.867 2.866 2.866 0 0 0-.967 2.236 3.146 3.146 0 0 0 .957 2.321 3.213 3.213 0 0 0 2.355.95q1.398 0 2.637-1.267l1.24 1.342q-1.822 1.827-4.205 1.827zm14.396-.149H22.71v-1.324q-1.239 1.473-3.322 1.473-1.558 0-2.58-.876-1.024-.876-1.024-2.34 0-1.462 1.089-2.19 1.088-.727 2.947-.726h2.721v-.373q0-1.976-2.215-1.976-1.389 0-2.89 1.007l-.938-1.305a6.493 6.493 0 0 1 4.129-1.436q1.764 0 2.88.886 1.117.885 1.118 2.786zm-2.103-3.69v-.84h-2.364q-2.272 0-2.272 1.417a1.257 1.257 0 0 0 .564 1.11q.563.381 1.567.381a2.858 2.858 0 0 0 1.755-.559 1.786 1.786 0 0 0 .75-1.51zm7.132-1.679v5.369h-2.102v-9.916h2.102v1.808a3.791 3.791 0 0 1 3.323-1.958q1.689 0 2.73 1.026 1.042 1.025 1.042 2.963v6.077h-2.102v-5.443q0-2.74-2.29-2.74a2.762 2.762 0 0 0-1.895.718q-.808.718-.808 2.097zm14.453 5.518a5.06 5.06 0 0 1-3.585-1.407q-1.502-1.407-1.502-3.682 0-2.274 1.567-3.7 1.567-1.426 3.82-1.426a5.202 5.202 0 0 1 3.81 1.548l-1.239 1.51q-1.295-1.119-2.609-1.119a3.304 3.304 0 0 0-2.28.867 2.866 2.866 0 0 0-.967 2.236 3.146 3.146 0 0 0 .958 2.321 3.213 3.213 0 0 0 2.355.95q1.398 0 2.637-1.267l1.239 1.342q-1.82 1.827-4.204 1.827zm15.672-4.194h-7.827a2.255 2.255 0 0 0 .995 1.743 3.507 3.507 0 0 0 2.102.662q1.876 0 2.853-1.175l1.2 1.305q-1.614 1.66-4.203 1.659a5.022 5.022 0 0 1-3.576-1.389q-1.474-1.388-1.473-3.728 0-2.339 1.501-3.718a5.059 5.059 0 0 1 3.538-1.38q2.037 0 3.463 1.221 1.426 1.221 1.427 3.365zm-7.827-1.64h5.724q0-1.249-.788-1.92a2.894 2.894 0 0 0-1.942-.671 3.34 3.34 0 0 0-2.074.699 2.252 2.252 0 0 0-.92 1.892zm15.372-2.274q-1.558 0-2.346 1.006-.789 1.007-.789 2.703v4.25h-2.102v-9.916h2.102v1.994a4.335 4.335 0 0 1 1.38-1.529 3.34 3.34 0 0 1 1.848-.615l.02 2.107zm1.492 7.698a1.356 1.356 0 0 1-.404-.988 1.326 1.326 0 0 1 .404-.978 1.345 1.345 0 0 1 .985-.401 1.377 1.377 0 0 1 .995.4 1.313 1.313 0 0 1 .413.98 1.342 1.342 0 0 1-.413.987 1.361 1.361 0 0 1-.995.41 1.33 1.33 0 0 1-.985-.41zm14.367-9.655v8.648q0 2.629-1.435 3.943-1.436 1.314-3.689 1.314a6.522 6.522 0 0 1-4.073-1.398l.995-1.584q1.464 1.1 2.956 1.1t2.365-.765q.873-.764.873-2.442v-1.267a3.565 3.565 0 0 1-1.342 1.398 3.747 3.747 0 0 1-1.961.522q-1.99 0-3.266-1.38-1.277-1.379-1.276-3.43 0-2.05 1.276-3.43 1.276-1.378 3.256-1.379 1.98 0 3.22 1.622v-1.472zm-7.789 4.576a3.128 3.128 0 0 0 .76 2.106q.76.885 2.046.885a2.714 2.714 0 0 0 2.083-.857 3.013 3.013 0 0 0 .798-2.134 3.094 3.094 0 0 0-.807-2.163 2.692 2.692 0 0 0-2.083-.885 2.514 2.514 0 0 0-2.037.913 3.235 3.235 0 0 0-.76 2.135zm19.182 4.007q-1.502 1.482-3.754 1.482t-3.754-1.482a5.128 5.128 0 0 1 0-7.25q1.502-1.483 3.754-1.483t3.754 1.482a5.128 5.128 0 0 1 0 7.251zm-6.015-1.286a3.281 3.281 0 0 0 4.523 0q.891-.904.891-2.34 0-1.434-.891-2.339a3.281 3.281 0 0 0-4.523 0q-.892.905-.892 2.34 0 1.435.892 2.34zm12.378 2.619l-4.017-9.916H99.1l3.04 7.493 3.042-7.493h2.177l-4.017 9.916zm14.471-15.117h1.877L109.16 52.13h-1.877z"/></g><g class="bycls-1"><path class="bycls-4" d="M51.627 64.033H43.8a2.255 2.255 0 0 0 .995 1.743 3.507 3.507 0 0 0 2.102.662q1.877 0 2.853-1.175l1.201 1.305q-1.614 1.66-4.204 1.66a5.022 5.022 0 0 1-3.576-1.39q-1.473-1.388-1.473-3.728 0-2.339 1.502-3.718a5.058 5.058 0 0 1 3.538-1.38q2.036 0 3.462 1.221 1.427 1.221 1.427 3.365zm-7.827-1.64h5.725q0-1.249-.789-1.92a2.894 2.894 0 0 0-1.942-.671 3.34 3.34 0 0 0-2.074.699 2.252 2.252 0 0 0-.92 1.892zm17.249 2.721a2.782 2.782 0 0 1-1.032 2.265q-1.033.848-2.647.848a7.13 7.13 0 0 1-2.262-.392 6.802 6.802 0 0 1-2.074-1.1l1.014-1.62q1.745 1.304 3.378 1.304a1.77 1.77 0 0 0 1.127-.326 1.014 1.014 0 0 0 .412-.83q0-.745-1.989-1.342-.15-.056-.225-.074-3.116-.84-3.116-2.796a2.647 2.647 0 0 1 1.08-2.21q1.078-.829 2.805-.829a5.867 5.867 0 0 1 3.266 1.007l-.788 1.547a4.73 4.73 0 0 0-2.647-.802 2.428 2.428 0 0 0-1.22.27.878.878 0 0 0-.469.812.74.74 0 0 0 .488.708 4.734 4.734 0 0 0 .948.317q.61.15 1.08.298.468.15.91.336a5.909 5.909 0 0 1 .947.522q1.014.67 1.014 2.087zm7.733-7.102a4.764 4.764 0 0 1 3.434 1.38q1.427 1.38 1.427 3.672 0 2.293-1.417 3.728-1.418 1.435-3.304 1.435t-3.387-1.64v5.107h-2.102V58.161h2.102v1.734q1.238-1.882 3.247-1.883zm-3.285 5.126q0 1.417.863 2.321a2.796 2.796 0 0 0 2.103.904 2.995 2.995 0 0 0 2.158-.895q.92-.895.92-2.32a3.287 3.287 0 0 0-.901-2.368 2.884 2.884 0 0 0-2.159-.941 2.767 2.767 0 0 0-2.12.941 3.355 3.355 0 0 0-.864 2.358zm18.638 4.94H82.22v-1.323q-1.238 1.472-3.322 1.472-1.558 0-2.58-.876-1.024-.876-1.024-2.34 0-1.462 1.09-2.19 1.087-.726 2.946-.727h2.721v-.372q0-1.976-2.214-1.976-1.39 0-2.89 1.006l-.94-1.304a6.492 6.492 0 0 1 4.13-1.436q1.764 0 2.88.886 1.117.885 1.118 2.786zm-2.102-3.69v-.84h-2.365q-2.272 0-2.271 1.417a1.257 1.257 0 0 0 .563 1.11q.563.381 1.567.381a2.858 2.858 0 0 0 1.755-.559 1.786 1.786 0 0 0 .75-1.51zm7.132-1.678v5.368h-2.102V58.16h2.102v1.808a3.791 3.791 0 0 1 3.322-1.957q1.689 0 2.73 1.025 1.042 1.026 1.042 2.964v6.077h-2.102v-5.443q0-2.74-2.29-2.74a2.762 2.762 0 0 0-1.895.718q-.808.717-.807 2.096zm18.375 4.035q-1.502 1.482-3.754 1.482-2.253 0-3.754-1.482a5.127 5.127 0 0 1 0-7.25q1.501-1.483 3.754-1.483 2.252 0 3.754 1.482a5.128 5.128 0 0 1 0 7.251zm-6.016-1.286a3.281 3.281 0 0 0 4.523 0q.892-.904.892-2.34 0-1.435-.892-2.339a3.281 3.281 0 0 0-4.523 0q-.892.905-.892 2.34 0 1.435.892 2.339zm12.003 2.619h-2.102v-13.83h2.102z"/></g><path d="M857.125 0c-76.798 0-139.119 61.834-139.119 138.033a137.927 137.927 0 0 0 4.407 33.853l-.378.374a111.449 111.449 0 0 1 3.273 35.102 108.025 108.025 0 0 1-32.356 70.078 112.464 112.464 0 0 1 74.533-21.86 113.802 113.802 0 0 1 26.565 5.371 139.69 139.69 0 0 0 62.824 14.865c76.799 0 139.119-61.833 139.119-138.033C996.245 61.833 933.924 0 857.125 0zm18.76 209.36H845.29v-28.23h30.594zm29.586-96.935a38.78 38.78 0 0 1-11.205 18.863c-8.939 7.994-21.151 13.24-18.256 29.105h-30.593c-2.77-12.616-1.26-23.484 9.316-31.604 6.17-4.871 12.59-9.368 18.004-14.865 4.784-4.997 5.288-11.492 1.385-17.738-3.651-6.12-9.443-8.87-16.241-7.495-6.799 1.25-11.205 5.746-12.716 12.617a40.74 40.74 0 0 0-1.007 6.745h-30.216c.881-6.745.881-13.366 2.77-19.487 7.302-21.985 32.86-34.352 56.906-27.731 22.536 6.37 37.267 28.855 31.853 51.59zM679.607 288.933l.503-.5c-.125.25-.377.375-.503.5z" transform="rotate(.283) scale(.16462)" fill="#00b4ba" id="byLayer_5" data-name="Layer 5"/></svg><svg viewBox="-11 -11 132 132" width="132" height="132" id="live-help-person-large" y="2501" xmlns="http://www.w3.org/2000/svg"><path fill="#479EBD" d="M63.775 62.443c-.078 0-.235-.078-.548-.157-.627 1.959-2.664 6.268-8.227 6.268h-.078c-5.328-.157-7.678-3.369-8.775-6.111-.392.157-.549.157-.549.157-6.66 2.272-11.673 6.894-13.867 12.692h46.382c-2.508-6.033-7.757-10.734-14.338-12.849z"/><path fill="#479EBD" d="M55 0C24.601 0 0 24.601 0 55s24.601 55 55 55 55-24.601 55-55S85.399 0 55 0zm26.56 77.8c-.314.39-.784.626-1.254.626H29.694c-.47 0-.94-.235-1.254-.627-.313-.392-.392-.862-.313-1.332 2.037-8.148 8.931-14.807 18.02-17.315 1.488-1.645 2.037-2.663 2.272-3.212-.235-.392-.862-1.567-1.645-3.134l-.549-1.018 1.175.47c.94.392 1.88.627 2.82.862l.236.078.078.157c.392.705.705 1.253.94 1.723.157.235.157.47.235.705 0 .47-.156 2.35-3.447 5.877 0 .078-.078.156-.078.156l-.235.079h-.079c.862 2.037 3.134 5.014 7.13 5.014 4.387 0 6.111-3.682 6.66-5.014h-.079l-.078-.079c-2.82-2.977-3.447-4.936-3.604-5.797a1.36 1.36 0 0 1 .235-1.097c1.802-2.742 6.424-10.499 6.424-13.868v-.783c-2.272-1.567-3.525-4.544-4.074-6.033-3.447 2.82-11.203 6.111-14.572 7.443.156 1.489.94 3.682 2.193 6.503 1.41.705 3.134 1.175 5.093 1.332.47-.47 1.019-.705 1.645-.705 1.332 0 2.35 1.018 2.35 2.35s-1.018 2.35-2.35 2.35c-.705 0-1.332-.313-1.802-.861-6.503-.47-9.715-3.604-11.203-6.112-1.96-.705-3.056-2.272-3.056-4.387a4.3 4.3 0 0 1 1.097-2.899c.47-7.991 5.406-16.531 15.278-16.531 5.64 0 9.323 2.977 11.36 5.484 2.586 3.134 4.153 7.365 4.31 11.674.391.705.626 1.489.626 2.272 0 2.899-2.037 4.7-5.093 4.7h-.156c-1.646 3.918-4.153 7.992-5.015 9.246.236.47.706 1.488 2.038 2.977 9.088 2.272 16.14 8.775 18.803 17.472-.078.391-.157.861-.47 1.253z"/><path fill="#479EBD" d="M67.3 37.607c-.94-5.328-3.525-8.697-6.502-10.499-1.646-.94-3.604-1.488-5.798-1.488-2.115 0-4.387.548-6.346 1.88-2.664 1.88-4.858 5.17-5.641 10.107.47-1.959 1.41-3.996 2.899-5.641 2.037-2.586 5.014-4.544 9.166-4.544 4.231 0 7.208 1.88 9.167 4.465 1.489 1.646 2.429 3.604 2.899 5.642.078 0 .157 0 .157.078z"/></svg><svg viewBox="-11 -11 45 36" width="45" height="36" id="mail-envelope-closed-blue" y="2633" xmlns="http://www.w3.org/2000/svg"><path d="M21.5 0l-10 8.7L1.5 0h20zM.31 13.73c-.19-.19-.31-.45-.31-.74V1.01C0 .72.12.46.32.28L8.05 7 .31 13.73zM1.5 14l7.3-6.35L11.5 10l2.7-2.35L21.5 14h-20zM23 12.99c0 .29-.12.55-.32.73L14.95 7 22.69.27c.19.19.31.45.31.74v11.98z" fill="#2b7bba"/></svg><svg viewBox="-11 -11 45 36" width="45" height="36" id="mail-envelope-closed-white" y="2669" xmlns="http://www.w3.org/2000/svg"><path d="M21.5 0l-10 8.7L1.5 0h20zM.31 13.73c-.19-.19-.31-.45-.31-.74V1.01C0 .72.12.46.32.28L8.05 7 .31 13.73zM1.5 14l7.3-6.35L11.5 10l2.7-2.35L21.5 14h-20zM23 12.99c0 .29-.12.55-.32.73L14.95 7 22.69.27c.19.19.31.45.31.74v11.98z" fill="#fff"/></svg><svg viewBox="-11 -11.01 47 40.01" width="47" height="40.01" id="menu" y="2705" xmlns="http://www.w3.org/2000/svg"><path d="M25 3.99H0v-4h25v4zm0 3H0v4h25v-4zM25 14H0v4h25v-4z" fill="#fff"/></svg><svg viewBox="-21 -11 68 40.01" width="68" height="40.01" id="menu-return-white" y="2746" xmlns="http://www.w3.org/2000/svg"><path d="M36 4H11V0h25zm0 7H11V7h25zm0 7.01H11v-4h25zM.013.492c.692.676.746 1.618 0 2.444l-5.815 6.066 5.815 6.063c.746.828.692 1.771 0 2.443-.69.678-1.858.634-2.507 0-.648-.63-6.985-7.286-6.985-7.286a1.695 1.695 0 0 1 0-2.444S-3.142 1.124-2.494.492c.649-.634 1.817-.678 2.507 0z" fill="#fff"/></svg><svg width="58" height="58" viewBox="-10 -10 58 58" id="minus-box" y="2787" xmlns="http://www.w3.org/2000/svg"><path fill="#389cc0" d="M0 0h38v38H0z"/><path d="M6 16h26v6H6v-6z" fill="#fff"/></svg><svg viewBox="-11 -11 42 42" width="42" height="42" id="minus-o-blue" y="2845" xmlns="http://www.w3.org/2000/svg"><path d="M14.778 9.014H5.156a.956.956 0 0 0-.953.953c0 .524.429.953.953.953h9.622a.956.956 0 0 0 .953-.953.956.956 0 0 0-.953-.953z" fill="#2b7bba"/><path d="M0 10c0 7.687 8.334 12.491 15 8.647A9.98 9.98 0 0 0 20 10c0-7.687-8.333-12.49-15-8.647A9.981 9.981 0 0 0 0 10zm.91 0c0-6.988 7.575-11.355 13.635-7.86A9.075 9.075 0 0 1 19.09 10c0 6.988-7.575 11.355-13.635 7.862A9.077 9.077 0 0 1 .91 10z" fill="#2b7bba"/></svg><svg viewBox="-11 -11 107 107" width="107" height="107" id="modal-alert" y="2887" xmlns="http://www.w3.org/2000/svg"><path fill="#319FBE" d="M42.5 85C19.1 85 0 65.9 0 42.5S19.1 0 42.5 0 85 19.1 85 42.5 65.9 85 42.5 85zm0-80C21.8 5 5 21.8 5 42.5S21.8 80 42.5 80 80 63.2 80 42.5 63.2 5 42.5 5z"/><path fill="#319FBE" d="M36.6 19.2h11.7v8.2l-2 23.8h-7.8l-1.9-23.8v-8.2zm1.7 45.1c-1.1-1.1-1.7-2.5-1.7-4.1 0-1.6.6-3 1.7-4.1 1.1-1.1 2.5-1.7 4.1-1.7 1.6 0 3 .6 4.1 1.7s1.7 2.5 1.7 4.1c0 1.6-.6 3-1.7 4.1S44 66 42.4 66c-1.6-.1-2.9-.6-4.1-1.7z"/></svg><svg viewBox="-11 -11 39 42" width="39" height="42" id="newspaper-white" y="2994" xmlns="http://www.w3.org/2000/svg"><path d="M3.4 13.043h10.2V7.826H3.4v5.217zm.85-4.347h8.5v3.478h-8.5V8.696zM3.4 6.087h10.2v.87H3.4zm0 7.826h4.25v.87H3.4zm0 1.739h2.55v.87H3.4zm3.43.051h.85v.87h-.85zm2.52-1.79h4.25v.87H9.35zm0 1.739h4.25v.87H9.35zM15.3 2.609V1.79C15.3.783 14.452 0 12.355 0h-10.2C.749 0 0 1.22 0 2.66v14.782C0 18.881.749 20 2.155 20H17V2.609h-1.7zm0 15.652H2.155c-.469 0-.455-.34-.455-.819V2.66c0-.479-.014-.921.455-.921H13.6v.87H3.4v1.739h11.9v13.913z" fill="#fff"/></svg><svg viewBox="-10.999 -11 35 34.999" width="35" height="34.999" id="phone-white" y="3036" xmlns="http://www.w3.org/2000/svg"><path d="M13 10.266c0 .332-.148.978-.286 1.283-.194.453-.711.748-1.126.979-.545.295-1.099.471-1.717.471-.859 0-1.635-.351-2.42-.637a8.626 8.626 0 0 1-1.615-.767c-1.569-.969-3.462-2.862-4.432-4.431a8.693 8.693 0 0 1-.766-1.616C.352 4.764.001 3.988.001 3.129c0-.618.175-1.172.471-1.717C.703.997.998.48 1.45.286 1.755.148 2.401 0 2.734 0a.47.47 0 0 1 .194.028c.193.064.397.517.489.702.295.526.581 1.062.886 1.579.148.239.425.535.425.821 0 .564-1.671 1.386-1.671 1.884 0 .249.231.572.36.794.932 1.68 2.096 2.844 3.776 3.776.222.13.545.36.794.36.499 0 1.32-1.671 1.884-1.671.285 0 .581.277.821.425.517.305 1.053.591 1.579.886.185.092.637.296.702.489a.47.47 0 0 1 .028.194z" fill="#fff"/></svg><svg viewBox="-11 -11 36.85 41.14" width="36.85" height="41.14" id="pinterest-blue" y="3071" xmlns="http://www.w3.org/2000/svg"><path d="M7.85 0C2.7 0 0 3.68 0 6.86c0 1.84.74 3.55 2.21 4.17.25.12.49 0 .49-.25s.12-.74.25-.86c.12-.25 0-.37-.12-.61-.49-.49-.74-1.23-.74-2.08 0-2.7 2.08-5.27 5.39-5.27 2.94 0 4.54 1.84 4.54 4.17 0 3.19-1.35 5.76-3.43 5.76-1.1 0-1.96-.98-1.72-2.08.37-1.35.98-2.82.98-3.92 0-.86-.49-1.59-1.47-1.59-1.23 0-2.08 1.23-2.08 2.82 0 .98.37 1.72.37 1.72s-1.23 5.03-1.35 6.01c-.37 1.72-.12 3.92 0 4.17 0 .12.12.12.25.12.12-.12 1.47-1.84 1.96-3.55.12-.49.74-2.94.74-2.94.37.74 1.47 1.35 2.7 1.35 3.55 0 5.88-3.19 5.88-7.48-.14-3.58-2.84-6.52-7-6.52z" fill="#2b7bba"/></svg><svg viewBox="-11 -11 36.85 41.14" width="36.85" height="41.14" id="pinterest-white" y="3113" xmlns="http://www.w3.org/2000/svg"><path d="M7.85 0C2.7 0 0 3.68 0 6.86c0 1.84.74 3.55 2.21 4.17.25.12.49 0 .49-.25s.12-.74.25-.86c.12-.25 0-.37-.12-.61-.49-.49-.74-1.23-.74-2.08 0-2.7 2.08-5.27 5.39-5.27 2.94 0 4.54 1.84 4.54 4.17 0 3.19-1.35 5.76-3.43 5.76-1.1 0-1.96-.98-1.72-2.08.37-1.35.98-2.82.98-3.92 0-.86-.49-1.59-1.47-1.59-1.23 0-2.08 1.23-2.08 2.82 0 .98.37 1.72.37 1.72s-1.23 5.03-1.35 6.01c-.37 1.72-.12 3.92 0 4.17 0 .12.12.12.25.12.12-.12 1.47-1.84 1.96-3.55.12-.49.74-2.94.74-2.94.37.74 1.47 1.35 2.7 1.35 3.55 0 5.88-3.19 5.88-7.48-.14-3.58-2.84-6.52-7-6.52z" fill="#fff"/></svg><svg width="58" height="58" viewBox="-10 -10 58 58" id="plus-box" y="3155" xmlns="http://www.w3.org/2000/svg"><path fill="#389cc0" d="M0 0h38v38H0z"/><path d="M16 6h6v10h10v6H22v10h-6V22H6v-6h10z" fill="#fff"/></svg><svg viewBox="-11 -11 42 42" width="42" height="42" id="plus-o-blue" y="3213" xmlns="http://www.w3.org/2000/svg"><path d="M14.778 9.014H10.92V5.156a.956.956 0 0 0-.953-.953.956.956 0 0 0-.953.953v3.858H5.156a.956.956 0 0 0-.953.953c0 .524.429.953.953.953h3.858v3.858c0 .524.429.953.953.953a.956.956 0 0 0 .953-.953V10.92h3.858a.956.956 0 0 0 .953-.953.956.956 0 0 0-.953-.953z" fill="#2b7bba"/><path d="M0 10c0 7.687 8.334 12.491 15 8.647A9.98 9.98 0 0 0 20 10c0-7.687-8.333-12.49-15-8.647A9.981 9.981 0 0 0 0 10zm.91 0c0-6.988 7.575-11.355 13.635-7.86A9.075 9.075 0 0 1 19.09 10c0 6.988-7.575 11.355-13.635 7.862A9.077 9.077 0 0 1 .91 10z" fill="#2b7bba"/></svg><svg viewBox="-11 -11 45 41" width="45" height="41" id="printer-blue" y="3255" xmlns="http://www.w3.org/2000/svg"><defs><style>.cnst0{fill:#2b7bba}</style></defs><path class="cnst0" d="M19.03 14.25H23v-9.5h-3.97V0H3.98v4.75H0v9.5h3.97V19h15.07v-4.75zM18.24.79v3.96H4.77V.79m0 8.05h13.49v9.37H4.77V8.84z"/><path class="cnst0" d="M5.56 13.46h11.9v.79H5.56zm0 2.38h11.9v.79H5.56zm0-4.76h11.9v.79H5.56z"/></svg><svg viewBox="-11 -11 45 41" width="45" height="41" id="printer-white" y="3296" xmlns="http://www.w3.org/2000/svg"><path d="M19.03 14.25H23v-9.5h-3.97V0H3.98v4.75H0v9.5h3.97V19h15.07v-4.75zM18.24.79v3.96H4.77V.79m0 8.05h13.49v9.37H4.77V8.84z" fill="#fff"/><path class="cost0" fill="#fff" d="M5.56 13.46h11.9v.79H5.56zm0 2.38h11.9v.79H5.56zm0-4.76h11.9v.79H5.56z"/></svg><svg viewBox="-11 -11 132 132" width="132" height="132" id="questionmark-large" y="3337" xmlns="http://www.w3.org/2000/svg"><path fill="none" d="M55 24.758c-16.688 0-30.32 13.554-30.32 30.32 0 16.688 13.554 30.32 30.32 30.32 16.688 0 30.32-13.553 30.32-30.32 0-16.766-13.632-30.32-30.32-30.32zm0 57.429c-14.964 0-27.187-12.223-27.187-27.187S40.036 27.813 55 27.813 82.187 40.036 82.187 55 69.964 82.187 55 82.187z"/><path fill="#3873A5" d="M55 27.892c-14.964 0-27.187 12.222-27.187 27.186S40.036 82.265 55 82.265s27.187-12.222 27.187-27.187S69.964 27.892 55 27.892zm0 42.856c-.783 0-1.41-.627-1.41-1.41 0-.784.627-1.41 1.41-1.41.783 0 1.41.626 1.41 1.41 0 .783-.627 1.41-1.41 1.41zm4.936-14.103l-.235.235c-.94.862-1.802 1.724-2.429 2.586-.783 1.018-1.097 1.959-1.097 3.055v.706c0 .313-.156.626-.392.783-.235.235-.548.313-.861.313-.314 0-.627-.156-.784-.391-.235-.235-.313-.549-.313-.862v-.705c0-1.567.548-3.056 1.488-4.466.784-1.097 1.724-1.959 2.664-2.82l.314-.314c1.958-1.802 3.76-3.526 3.682-6.816 0-3.84-3.134-7.052-7.051-7.052s-7.052 3.134-7.052 7.052c0 .313-.156.627-.391.783-.235.235-.47.314-.784.314-.313 0-.627-.157-.783-.392-.235-.235-.314-.549-.314-.862 0-5.17 4.231-9.402 9.402-9.402 5.171 0 9.323 4.153 9.402 9.402 0 4.31-2.272 6.816-4.466 8.853z"/><path fill="#3873A5" d="M55 0C24.601 0 0 24.601 0 55s24.601 55 55 55 55-24.601 55-55S85.399 0 55 0zm0 85.32c-16.688 0-30.32-13.554-30.32-30.32 0-16.688 13.554-30.32 30.32-30.32 16.688 0 30.32 13.554 30.32 30.32 0 16.688-13.632 30.32-30.32 30.32z"/></svg><svg viewBox="-11 -11 40 40" width="40" height="40" id="rss-blue" y="3469" xmlns="http://www.w3.org/2000/svg"><path d="M14.4 18C14.4 10.1 7.9 3.6 0 3.6V0c9.874 0 18 8.126 18 18h-3.6zM2.468 13.061a2.474 2.474 0 0 1 2.47 2.471A2.477 2.477 0 0 1 2.463 18 2.466 2.466 0 0 1 0 15.532a2.471 2.471 0 0 1 2.468-2.47zM11.932 18H8.433c0-4.627-3.806-8.434-8.433-8.434V6.067c6.545 0 11.932 5.389 11.932 11.933z" fill="#2b7bba"/></svg><svg viewBox="-11 -11 39 39" width="39" height="39" id="rss-white" y="3509" xmlns="http://www.w3.org/2000/svg"><path d="M13.6 17C13.6 9.539 7.461 3.4 0 3.4V0c9.325 0 17 7.675 17 17h-3.4zM2.331 12.335a2.337 2.337 0 0 1 2.333 2.334A2.339 2.339 0 0 1 2.326 17 2.33 2.33 0 0 1 0 14.669a2.334 2.334 0 0 1 2.331-2.333zM11.269 17H7.965c0-4.37-3.595-7.965-7.965-7.965V5.73c6.181 0 11.269 5.09 11.269 11.27z" fill="#fff"/></svg><svg viewBox="-11 -11 38.001 38.003" width="38.001" height="38.003" id="search" y="3548" xmlns="http://www.w3.org/2000/svg"><path d="M15.56 15.56c-.59.59-1.54.59-2.12 0l-2.65-2.65c-1.09.7-2.38 1.12-3.77 1.12C3.14 14.02 0 10.89 0 7.01 0 3.13 3.14 0 7.01 0c3.87 0 7.01 3.14 7.01 7.01 0 1.39-.42 2.68-1.12 3.77l2.65 2.65c.6.59.6 1.54.01 2.13zM7.01 2C4.25 2 2 4.24 2 7.01c0 2.77 2.24 5.01 5.01 5.01 2.77 0 5.01-2.24 5.01-5.01C12.02 4.24 9.78 2 7.01 2z" fill="#fff"/></svg><svg viewBox="-11 -11 48 48" width="48" height="48" id="search-large" y="3587" xmlns="http://www.w3.org/2000/svg"><path d="M25.283 25.281a2.422 2.422 0 0 1-3.445 0l-4.305-4.305c-1.771 1.137-3.867 1.819-6.126 1.819C5.103 22.779 0 17.693 0 11.39 0 5.085 5.103 0 11.391 0c6.287 0 11.39 5.102 11.39 11.39 0 2.258-.683 4.353-1.819 6.125l4.305 4.305c.975.959.975 2.503.016 3.461zM11.391 3.25c-4.485 0-8.141 3.638-8.141 8.14 0 4.5 3.639 8.14 8.141 8.14a8.135 8.135 0 0 0 8.141-8.14c0-4.502-3.64-8.14-8.141-8.14z" fill="#fff"/></svg><svg width="64" height="64" xmlns:bx="https://boxy-svg.com" viewBox="-10 -10 64 64" id="social-calendar" y="3635" xmlns="http://www.w3.org/2000/svg"><g fill="#fff" fill-rule="evenodd" bx:origin="0.5 0.5"><g transform="matrix(1.00835 0 0 1.00964 1 .594)"><mask id="cua"><path d="M41.652 21.201V.402H0V42h41.652z"/></mask><path d="M37.756 39.408l-16.93.006-16.93-.006a1.297 1.297 0 0 1-1.299-1.299V26.254l.004-.001V14.795h36.451v11.458l.003.001V38.11c0 .723-.584 1.299-1.299 1.299zm-6.539-33.22v2.114c0 .722.584 1.298 1.299 1.298h.004c.715 0 1.299-.576 1.299-1.298V6.189h3.945c.722 0 1.298.583 1.298 1.298v4.703H2.59V7.487c0-.715.576-1.298 1.298-1.298h3.946v2.113c0 .722.584 1.298 1.298 1.298h.005c.714 0 1.298-.576 1.298-1.298V6.189h20.782zm8.05-2.279c-.468-.2-.982-.31-1.522-.31h-3.923V1.71c0-.595-.391-1.09-.933-1.247A1.297 1.297 0 0 0 31.2 1.7v1.906H10.454V1.701A1.298 1.298 0 0 0 8.763.462 1.29 1.29 0 0 0 7.83 1.71V3.6H3.907c-.54 0-1.054.11-1.521.31A3.894 3.894 0 0 0 0 7.495v30.614a3.893 3.893 0 0 0 3.888 3.889h10.783c0 .002 0 .003.001 0H26.98c.002.003.002.002.002 0h10.782a3.893 3.893 0 0 0 3.888-3.889V7.495a3.894 3.894 0 0 0-2.386-3.586z" mask="url(#cua)"/></g><path d="M14.4 14.4v24m13.2-24v24" stroke="#FFF" stroke-width="2" transform="matrix(1.00835 0 0 1.00964 1 .594)"/><path d="M27.62 24.618c-.4.17-.831.286-1.283.337a2.17 2.17 0 0 0 .982-1.185c-.431.246-.91.424-1.418.52a2.277 2.277 0 0 0-1.631-.676c-1.234 0-2.234.959-2.234 2.14 0 .169.02.332.058.489a6.44 6.44 0 0 1-4.605-2.237 2.064 2.064 0 0 0-.303 1.076c0 .743.394 1.399.994 1.782a2.301 2.301 0 0 1-1.012-.268v.027c0 1.038.77 1.903 1.792 2.1a2.326 2.326 0 0 1-1.009.037c.284.85 1.11 1.469 2.087 1.486a4.607 4.607 0 0 1-2.774.917c-.18 0-.358-.01-.534-.03a6.525 6.525 0 0 0 3.425.962c4.11 0 6.357-3.262 6.357-6.092 0-.093-.003-.185-.006-.277a4.46 4.46 0 0 0 1.114-1.108m-21.78.98h1.297v-1.34c0-.59.014-1.5.417-2.064.425-.598 1.008-1.003 2.012-1.003 1.635 0 2.324.247 2.324.247l-.325 2.042s-.54-.166-1.044-.166-.955.191-.955.727v1.557h2.066l-.143 1.994H9.566v6.926H7.137v-6.926H5.84v-1.994m27.464.599h.62v-2.042l.732-1.749h-.678l-.389 1.299-.394-1.303h-.67l.778 1.754.001 2.04zm1.816-.716c0 .151.118.274.262.274.143 0 .26-.123.26-.274v-1.417a.268.268 0 0 0-.26-.274.269.269 0 0 0-.262.274v1.417zm-.513-1.057c0-.256.022-.455.066-.6a.662.662 0 0 1 .242-.345.72.72 0 0 1 .445-.131c.151 0 .281.029.39.084.11.056.194.129.253.219.058.09.1.182.121.277.022.096.032.24.032.436v.673c0 .247-.01.429-.03.544a.848.848 0 0 1-.13.323.605.605 0 0 1-.251.222.841.841 0 0 1-.357.071c-.15 0-.276-.019-.38-.06a.512.512 0 0 1-.242-.185.808.808 0 0 1-.123-.299 2.731 2.731 0 0 1-.036-.524v-.705zm1.99 1.504a.384.384 0 0 0 .381.234.39.39 0 0 0 .227-.067.525.525 0 0 0 .164-.201l-.01.22h.656V23.45h-.517v2.072a.21.21 0 0 1-.215.204.21.21 0 0 1-.215-.204V23.45h-.54v1.796c0 .23.005.382.012.459.007.076.026.15.056.222zm2.264 4.332l-.442.002v.292c0 .126-.11.227-.242.227h-.087a.234.234 0 0 1-.24-.227v-.618h1.01v-.363c0-.265-.007-.53-.03-.682-.072-.48-.778-.556-1.135-.31a.632.632 0 0 0-.247.317c-.05.138-.075.326-.075.566v.798c0 1.326 1.69 1.139 1.488-.002zm-1.843.177l-.001-1.339c0-.51-.401-.815-.944-.402l.003-.995h-.588l-.004 3.435.484-.007.044-.213c.618.54 1.007.17 1.006-.479zm-1.884-1.841h-.59v1.608c0 .232.015.348 0 .39-.047.124-.262.257-.347.013-.014-.042-.002-.172-.002-.392l-.002-1.619h-.586l.002 1.593c0 .244-.006.426.002.51.014.146.009.316.151.413.265.183.774-.027.9-.287v.332h.472v-2.561zm-2.118 2.562v-3.01h.707V27.7l-1.884-.003v.44h.588v3.02h.589zm6.704-3.169v2.859c0 .686-.623 1.247-1.385 1.247h-5.699c-.762 0-1.386-.561-1.386-1.247v-2.859c0-.685.624-1.247 1.386-1.247h5.699c.762 0 1.385.562 1.385 1.247zm-3.398.84c-.14 0-.257.092-.257.203v1.502c0 .111.116.202.257.202.143 0 .258-.09.258-.202v-1.502c0-.111-.115-.202-.258-.202zm2.094.663h-.559l.003-.309c0-.137.118-.25.263-.25h.036c.143 0 .262.113.262.25l-.005.309z"/></g></svg><svg width="44" height="44" xmlns:bx="https://boxy-svg.com" viewBox="-10 -10 44 44" id="sortable-circle-ascending" y="3699" xmlns="http://www.w3.org/2000/svg"><circle cx="12" cy="12" r="10" fill="#fff"/><path d="M15.739 10.497c-.298.302-.712.325-1.075 0L12 7.953l-2.666 2.544c-.363.325-.778.302-1.073 0a.806.806 0 0 1 0-1.097c.277-.283 3.201-3.055 3.201-3.055a.75.75 0 0 1 1.076 0S15.46 9.117 15.739 9.4a.805.805 0 0 1 0 1.097z" bx:origin="0.5 0"/></svg><svg width="44" height="44" xmlns:bx="https://boxy-svg.com" viewBox="-10 -10 44 44" id="sortable-circle-descending" y="3743" xmlns="http://www.w3.org/2000/svg"><circle cx="12" cy="12" r="10" bx:origin="0.45 0.45" fill="#fff"/><path d="M8.26 13.502c.299-.302.713-.325 1.076 0L12 16.045l2.665-2.543c.363-.325.778-.302 1.073 0a.805.805 0 0 1 0 1.097c-.277.283-3.201 3.055-3.201 3.055a.75.75 0 0 1-1.076 0S8.54 14.882 8.26 14.599a.806.806 0 0 1 0-1.097z" bx:origin="0.626 1.491"/></svg><svg width="44" height="44" xmlns:bx="https://boxy-svg.com" viewBox="-10 -10 44 44" id="sortable-circle-nosort" y="3787" xmlns="http://www.w3.org/2000/svg"><circle cx="12" cy="12" r="10" fill="#fff"/><path d="M15.739 10.497c-.298.302-.712.325-1.075 0L12 7.953l-2.666 2.544c-.363.325-.778.302-1.073 0a.806.806 0 0 1 0-1.097c.277-.283 3.201-3.055 3.201-3.055a.75.75 0 0 1 1.076 0S15.46 9.117 15.739 9.4a.805.805 0 0 1 0 1.097zm-7.477 3.007c.297-.302.712-.325 1.075 0L12 16.048l2.665-2.544c.364-.325.779-.302 1.073 0a.804.804 0 0 1 0 1.097c-.276.283-3.201 3.055-3.201 3.055a.748.748 0 0 1-1.075 0s-2.923-2.772-3.201-3.055a.805.805 0 0 1 0-1.097z" bx:origin="0.5 0"/></svg><svg viewBox="-10 -10 192 80.25" width="192" height="80.25" id="tweet-this" y="3831"><path fill="#2DA9D1" d="M2.75 2.234h164.734v39.054H2.75z"/><path d="M59.147 16.759v10.638h-2.124V16.759h-3.816v-1.944h9.756v1.944h-3.816zm9.144 10.638h-2.304l-3.312-9.576h2.088l2.376 7.236 2.376-7.236h2.088l2.376 7.236 2.376-7.236h2.088l-3.312 9.576h-2.304l-2.268-6.552-2.268 6.552zm20.844-3.907h-7.506c.048.696.366 1.258.954 1.684s1.26.639 2.016.639c1.2 0 2.112-.378 2.736-1.134l1.152 1.26c-1.032 1.068-2.376 1.602-4.032 1.602-1.345 0-2.487-.446-3.43-1.341-.942-.894-1.413-2.094-1.413-3.6s.479-2.703 1.44-3.591c.96-.889 2.091-1.332 3.394-1.332 1.302 0 2.408.393 3.32 1.179s1.368 1.869 1.368 3.249v1.385zm-7.506-1.583h5.49c0-.804-.252-1.422-.756-1.854-.505-.433-1.125-.648-1.863-.648s-1.401.226-1.989.675c-.588.45-.882 1.059-.882 1.827zm18.63 1.583h-7.506c.048.696.366 1.258.954 1.684s1.26.639 2.016.639c1.2 0 2.112-.378 2.736-1.134l1.152 1.26c-1.032 1.068-2.376 1.602-4.032 1.602-1.345 0-2.487-.446-3.43-1.341-.941-.894-1.412-2.094-1.412-3.6s.479-2.703 1.439-3.591c.96-.889 2.091-1.332 3.394-1.332 1.302 0 2.408.393 3.32 1.179s1.368 1.869 1.368 3.249v1.385zm-7.506-1.583h5.49c0-.804-.252-1.422-.756-1.854-.505-.433-1.125-.648-1.863-.648s-1.401.226-1.989.675c-.588.45-.882 1.059-.882 1.827zm12.132-2.466v4.86c0 .456.12.818.359 1.089.24.27.576.405 1.009.405.432 0 .846-.21 1.241-.631l.828 1.423c-.708.636-1.491.953-2.349.953-.858 0-1.59-.297-2.196-.891-.605-.594-.909-1.395-.909-2.403V19.44h-1.205v-1.62h1.205v-3.006h2.017v3.006h2.52v1.62h-2.52zm15.011-2.682v10.638h-2.124V16.759h-3.816v-1.944h9.757v1.944h-3.817zm7.758 5.454v5.184h-2.016V14.059h2.016v5.508c.288-.588.724-1.05 1.306-1.386s1.209-.504 1.881-.504c1.08 0 1.953.33 2.619.989.666.66.999 1.614.999 2.862v5.868h-2.017V22.14c0-1.764-.731-2.646-2.195-2.646-.696 0-1.303.231-1.818.693-.517.463-.775 1.137-.775 2.026zm9.739-6.301c-.252-.252-.378-.552-.378-.899s.126-.648.378-.9.552-.378.9-.378.647.126.899.378.378.553.378.9-.126.647-.378.899-.552.378-.899.378c-.349 0-.648-.126-.9-.378zm1.889 11.485h-2.016v-9.576h2.016v9.576zm9.738-2.863c0 .912-.33 1.642-.99 2.188s-1.506.818-2.538.818c-.696 0-1.419-.126-2.169-.378s-1.413-.605-1.989-1.062l.973-1.566c1.115.841 2.195 1.261 3.239 1.261.456 0 .816-.105 1.08-.315s.396-.477.396-.801c0-.48-.637-.912-1.908-1.296a2.036 2.036 0 0 0-.216-.072c-1.992-.54-2.988-1.44-2.988-2.7 0-.888.345-1.599 1.035-2.133.689-.534 1.587-.801 2.691-.801 1.104 0 2.147.323 3.132.972l-.756 1.494a4.513 4.513 0 0 0-2.538-.774c-.48 0-.87.088-1.17.262a.847.847 0 0 0-.45.782c0 .312.155.54.468.685.216.107.519.21.909.306.39.097.734.192 1.035.288.3.097.591.204.873.324.281.12.585.288.908.504.649.43.973 1.103.973 2.014z" fill="#FFF"/><path fill="#1E6881" d="M152.016 41.247l15.468.009.009 15.469z"/><path fill="#FFF" d="M40.406 13.517c-.922.409-1.915.686-2.955.81a5.175 5.175 0 0 0 2.264-2.847 10.315 10.315 0 0 1-3.269 1.248 5.139 5.139 0 0 0-3.758-1.625 5.146 5.146 0 0 0-5.146 5.146c0 .403.045.797.133 1.174a14.61 14.61 0 0 1-10.608-5.379 5.118 5.118 0 0 0-.697 2.588c0 1.786.909 3.362 2.288 4.284a5.117 5.117 0 0 1-2.331-.645v.066a5.15 5.15 0 0 0 4.129 5.045 5.129 5.129 0 0 1-2.324.09 5.153 5.153 0 0 0 4.809 3.574 10.325 10.325 0 0 1-6.393 2.202c-.416 0-.827-.023-1.228-.071a14.565 14.565 0 0 0 7.888 2.313c9.467 0 14.645-7.843 14.645-14.644 0-.223-.006-.444-.015-.665a10.44 10.44 0 0 0 2.568-2.664z"/></svg><svg viewBox="-11 -11 41 37.525" width="41" height="37.525" id="twitter-blue" y="3912" xmlns="http://www.w3.org/2000/svg"><path d="M19 1.848c-.717.293-1.424.536-2.263.596.829-.474 1.425-1.252 1.728-2.141-.768.414-1.606.768-2.495.95A3.892 3.892 0 0 0 13.121 0a3.916 3.916 0 0 0-3.919 3.919c0 .293.061.596.121.889a11.131 11.131 0 0 1-8.02-4.04 3.729 3.729 0 0 0-.545 1.969c0 1.364.717 2.556 1.727 3.273a3.618 3.618 0 0 1-1.778-.475v.061c0 1.899 1.364 3.444 3.152 3.798-.354.061-.657.121-1.011.121-.242 0-.474 0-.717-.06.475 1.545 1.96 2.676 3.627 2.737-1.303 1.071-3.031 1.667-4.809 1.667-.292 0-.595 0-.949-.061 1.727 1.131 3.798 1.727 6 1.727 7.192 0 11.111-5.939 11.111-11.111v-.475c.758-.606 1.414-1.323 1.889-2.091z" fill="#2b7bba"/></svg><svg viewBox="-11 -11 41 37.525" width="41" height="37.525" id="twitter-white" y="3950" xmlns="http://www.w3.org/2000/svg"><path d="M19 1.848c-.717.293-1.424.536-2.263.596.829-.474 1.425-1.252 1.728-2.141-.768.414-1.606.768-2.495.95A3.892 3.892 0 0 0 13.121 0a3.916 3.916 0 0 0-3.919 3.919c0 .293.061.596.121.889a11.131 11.131 0 0 1-8.02-4.04 3.729 3.729 0 0 0-.545 1.969c0 1.364.717 2.556 1.727 3.273a3.618 3.618 0 0 1-1.778-.475v.061c0 1.899 1.364 3.444 3.152 3.798-.354.061-.657.121-1.011.121-.242 0-.474 0-.717-.06.475 1.545 1.96 2.676 3.627 2.737-1.303 1.071-3.031 1.667-4.809 1.667-.292 0-.595 0-.949-.061 1.727 1.131 3.798 1.727 6 1.727 7.192 0 11.111-5.939 11.111-11.111v-.475c.758-.606 1.414-1.323 1.889-2.091z" fill="#fff"/></svg><svg viewBox="-11 -11 45 42" width="45" height="42" id="undo-white" y="3988" xmlns="http://www.w3.org/2000/svg"><path d="M18.598 20c3.031-4.024 3.541-10.162-8.364-9.957V15L0 7.5 10.234 0v4.851C24.49 4.579 26.079 14.074 18.598 20z" fill="#fff"/></svg><svg viewBox="-11 -11 45 41" width="45" height="41" id="volume-up-blue" y="4030" xmlns="http://www.w3.org/2000/svg"><path d="M10.616 2.231v14.538c0 .468-.401.855-.885.855a.89.89 0 0 1-.622-.254l-4.603-4.449H.884c-.484 0-.884-.388-.884-.856v-5.13c0-.468.4-.856.884-.856h3.622L9.109 1.63a.896.896 0 0 1 .622-.254c.484 0 .885.387.885.855zM15.923 9.5c0 1.337-.843 2.632-2.142 3.14a.795.795 0 0 1-.347.067c-.483 0-.884-.375-.884-.855 0-1.016 1.604-.735 1.604-2.352S12.55 8.163 12.55 7.148c0-.48.401-.855.884-.855a.81.81 0 0 1 .347.067c1.299.494 2.142 1.803 2.142 3.14zm3.539 0c0 2.713-1.686 5.238-4.286 6.293a1.05 1.05 0 0 1-.345.067c-.498 0-.899-.388-.899-.855 0-.375.221-.628.539-.789.373-.187.718-.347 1.051-.588a5.048 5.048 0 0 0 2.169-4.129c0-1.63-.8-3.167-2.169-4.129-.332-.24-.678-.401-1.051-.588-.318-.16-.539-.414-.539-.788 0-.468.4-.856.884-.856.126 0 .249.027.359.067 2.6 1.055 4.286 3.582 4.286 6.293zM23 9.5c0 4.102-2.529 7.817-6.427 9.433a1.08 1.08 0 0 1-.36.067c-.483 0-.884-.387-.884-.855 0-.388.206-.601.538-.789.194-.107.415-.173.622-.28.388-.2.774-.428 1.134-.682 2.266-1.617 3.607-4.169 3.607-6.894 0-2.725-1.341-5.278-3.607-6.894a9.848 9.848 0 0 0-1.134-.682c-.207-.107-.428-.173-.622-.28-.332-.188-.538-.401-.538-.789 0-.468.401-.855.884-.855.125 0 .249.027.36.067C20.47 1.684 23 5.398 23 9.5z" fill="#2b7bba"/></svg><svg viewBox="-11 -11 48 41" width="48" height="41" id="volume-up-white" y="4071" xmlns="http://www.w3.org/2000/svg"><path d="M12.002 2.522v16.434c0 .528-.455.966-1.002.966-.266 0-.516-.105-.703-.287l-5.203-5.028H.998c-.547 0-.998-.439-.998-.967V7.841c0-.531.451-.97.998-.97h4.096l5.203-5.028c.187-.181.438-.287.703-.287.547 0 1.002.438 1.002.966zm5.997 8.217c0 1.511-.951 2.974-2.421 3.551a.91.91 0 0 1-.392.073c-.546 0-.998-.423-.998-.966 0-1.148 1.811-.831 1.811-2.658s-1.811-1.511-1.811-2.658c0-.543.452-.966.998-.966.126 0 .266.014.392.076 1.47.557 2.421 2.037 2.421 3.548zm4.001 0c0 3.067-1.905 5.922-4.844 7.115a1.249 1.249 0 0 1-.39.076c-.564 0-1.016-.439-1.016-.969 0-.423.248-.709.608-.891.421-.211.811-.392 1.189-.663 1.546-1.088 2.451-2.826 2.451-4.669 0-1.843-.905-3.581-2.451-4.669-.377-.27-.768-.452-1.189-.663-.36-.181-.608-.468-.608-.89 0-.531.451-.97.998-.97.144 0 .282.033.407.076 2.939 1.193 4.844 4.05 4.844 7.115zm4 0c0 4.636-2.859 8.837-7.264 10.663a1.215 1.215 0 0 1-.408.076c-.546 0-1.001-.438-1.001-.966 0-.439.233-.679.61-.891.218-.122.469-.197.703-.319.439-.224.876-.482 1.281-.769 2.563-1.83 4.078-4.712 4.078-7.794 0-3.079-1.515-5.965-4.078-7.794a10.622 10.622 0 0 0-1.281-.769c-.234-.122-.485-.197-.703-.319-.377-.212-.61-.452-.61-.891 0-.528.455-.966 1.001-.966.14 0 .282.03.408.076C23.14 1.903 26 6.103 26 10.739z" fill="#fff"/></svg><svg viewBox="-11 -11.001 40 43.766" width="40" height="43.766" id="youtube-blue" y="4112" xmlns="http://www.w3.org/2000/svg"><path d="M11.466 15.108v2.564c0 .546-.158.814-.473.814-.182 0-.366-.086-.548-.268v-3.656c.182-.182.366-.267.548-.267.315 0 .473.28.473.813zm4.105.013v.559h-1.094v-.559c0-.546.182-.826.548-.826.364 0 .546.28.546.826zM3.838 12.474h1.298v-1.141H1.348v1.141h1.276v6.911h1.214v-6.911zm3.499 6.911h1.081v-5.999H7.337v4.591c-.245.34-.475.509-.694.509-.145 0-.231-.086-.255-.255-.012-.037-.012-.172-.012-.426v-4.42H5.294v4.747c0 .426.037.706.099.889.096.304.351.449.704.449.387 0 .8-.244 1.239-.741v.655zm5.209-1.798v-2.393c0-.559-.023-.959-.109-1.203-.133-.449-.436-.678-.862-.678-.401 0-.778.218-1.131.655v-2.635h-1.08v8.051h1.08v-.582c.367.45.741.668 1.131.668.426 0 .73-.232.862-.668.085-.257.109-.657.109-1.216zm4.106-.122v-.156h-1.104c0 .436-.014.678-.026.74-.06.291-.218.437-.486.437-.374 0-.559-.278-.559-.837v-1.058h2.175V15.34c0-.642-.11-1.105-.328-1.409-.317-.413-.74-.618-1.288-.618-.559 0-.982.205-1.299.618-.232.304-.341.766-.341 1.409v2.102c0 .643.122 1.117.353 1.408.314.413.741.621 1.312.621.569 0 1.019-.218 1.311-.644.133-.194.229-.413.255-.655.024-.112.024-.353.024-.706zM9.267 6.375V3.827c0-.559-.157-.839-.522-.839-.353 0-.522.28-.522.839v2.548c0 .559.169.853.522.853.365 0 .522-.294.522-.853zM18 15.498c0 1.398-.013 2.892-.317 4.251-.228.961-1.008 1.666-1.941 1.762-2.237.254-4.495.254-6.742.254s-4.505 0-6.74-.254c-.935-.096-1.725-.8-1.943-1.762C0 18.39 0 16.896 0 15.498c0-1.409.013-2.892.317-4.251.228-.958 1.008-1.665 1.954-1.774C4.495 9.231 6.753 9.231 9 9.231s4.505 0 6.742.242c.933.11 1.723.816 1.941 1.774.317 1.359.317 2.842.317 4.251zM5.879 0h1.237L5.648 4.845v3.292H4.432V4.845c-.109-.595-.351-1.444-.74-2.575-.268-.754-.536-1.518-.79-2.271H4.19l.862 3.193zm4.493 4.045v2.124c0 .645-.109 1.131-.341 1.433-.304.413-.728.62-1.286.62-.545 0-.972-.207-1.276-.62-.23-.315-.34-.788-.34-1.433V4.045c0-.644.11-1.117.34-1.422.304-.412.731-.62 1.276-.62.559 0 .985.208 1.286.62.232.305.341.778.341 1.422zm4.068-1.969v6.062h-1.104V7.47c-.436.509-.849.753-1.252.753-.351 0-.605-.145-.714-.449-.062-.182-.099-.472-.099-.912V2.079h1.107v4.456c0 .254 0 .4.01.426.026.169.11.267.255.267.221 0 .449-.171.694-.522V2.079h1.104z" fill="#2b7bba"/></svg><svg viewBox="-11 -11.001 40 43.766" width="40" height="43.766" id="youtube-white" y="4156" xmlns="http://www.w3.org/2000/svg"><path d="M11.466 15.108v2.564c0 .546-.158.814-.473.814-.182 0-.366-.086-.548-.268v-3.656c.182-.182.366-.267.548-.267.315 0 .473.28.473.813zm4.105.013v.559h-1.094v-.559c0-.546.182-.826.548-.826.364 0 .546.28.546.826zM3.838 12.474h1.298v-1.141H1.348v1.141h1.276v6.911h1.214v-6.911zm3.499 6.911h1.081v-5.999H7.337v4.591c-.245.34-.475.509-.694.509-.145 0-.231-.086-.255-.255-.012-.037-.012-.172-.012-.426v-4.42H5.294v4.747c0 .426.037.706.099.889.096.304.351.449.704.449.387 0 .8-.244 1.239-.741v.655zm5.209-1.798v-2.393c0-.559-.023-.959-.109-1.203-.133-.449-.436-.678-.862-.678-.401 0-.778.218-1.131.655v-2.635h-1.08v8.051h1.08v-.582c.367.45.741.668 1.131.668.426 0 .73-.232.862-.668.085-.257.109-.657.109-1.216zm4.106-.122v-.156h-1.104c0 .436-.014.678-.026.74-.06.291-.218.437-.486.437-.374 0-.559-.278-.559-.837v-1.058h2.175V15.34c0-.642-.11-1.105-.328-1.409-.317-.413-.74-.618-1.288-.618-.559 0-.982.205-1.299.618-.232.304-.341.766-.341 1.409v2.102c0 .643.122 1.117.353 1.408.314.413.741.621 1.312.621.569 0 1.019-.218 1.311-.644.133-.194.229-.413.255-.655.024-.112.024-.353.024-.706zM9.267 6.375V3.827c0-.559-.157-.839-.522-.839-.353 0-.522.28-.522.839v2.548c0 .559.169.853.522.853.365 0 .522-.294.522-.853zM18 15.498c0 1.398-.013 2.892-.317 4.251-.228.961-1.008 1.666-1.941 1.762-2.237.254-4.495.254-6.742.254s-4.505 0-6.74-.254c-.935-.096-1.725-.8-1.943-1.762C0 18.39 0 16.896 0 15.498c0-1.409.013-2.892.317-4.251.228-.958 1.008-1.665 1.954-1.774C4.495 9.231 6.753 9.231 9 9.231s4.505 0 6.742.242c.933.11 1.723.816 1.941 1.774.317 1.359.317 2.842.317 4.251zM5.879 0h1.237L5.648 4.845v3.292H4.432V4.845c-.109-.595-.351-1.444-.74-2.575-.268-.754-.536-1.518-.79-2.271H4.19l.862 3.193zm4.493 4.045v2.124c0 .645-.109 1.131-.341 1.433-.304.413-.728.62-1.286.62-.545 0-.972-.207-1.276-.62-.23-.315-.34-.788-.34-1.433V4.045c0-.644.11-1.117.34-1.422.304-.412.731-.62 1.276-.62.559 0 .985.208 1.286.62.232.305.341.778.341 1.422zm4.068-1.969v6.062h-1.104V7.47c-.436.509-.849.753-1.252.753-.351 0-.605-.145-.714-.449-.062-.182-.099-.472-.099-.912V2.079h1.107v4.456c0 .254 0 .4.01.426.026.169.11.267.255.267.221 0 .449-.171.694-.522V2.079h1.104z" fill="#fff"/></svg></svg>